<svg xmlns="http://www.w3.org/2000/svg" viewBox="0 0 341.44 215.15"><defs><style>.cls-1{fill:#fff;}.cls-2{fill:#d4b060;}</style></defs><title>Asset 3</title><g id="Layer_2" data-name="Layer 2"><g id="Layer_1-2" data-name="Layer 1"><path class="cls-1" d="M245.38,211.79l1.92,3.36h3.36l-8.8-14.59h-3.19L230,215.14h2.9l1.93-3.35Zm-5.31-9.55,4.19,7.46H236Z"/><path class="cls-1" d="M257.69,215.14h6.8a4.56,4.56,0,0,0,2.94-.67,3.54,3.54,0,0,0,.72-2.6V200.55h-3.06V213h-8v-4.55L254,209v2.88a3.57,3.57,0,0,0,.72,2.6A4.56,4.56,0,0,0,257.69,215.14Z"/><path class="cls-1" d="M287.72,211.79l1.92,3.36H293l-8.8-14.59H281l-8.67,14.59h2.91l1.92-3.35Zm-5.3-9.55,4.18,7.46h-8.23Z"/><polygon class="cls-1" points="316.01 215.15 316.01 200.55 313.34 200.55 313.34 211.09 299.88 200.55 297.79 200.55 297.79 215.15 300.48 215.15 300.48 204.45 313.9 215.15 316.01 215.15"/><path class="cls-1" d="M326.84,215.14h9.92a4.54,4.54,0,0,0,2.9-.66,3.54,3.54,0,0,0,.73-2.61v-2.1a3.52,3.52,0,0,0-.71-2.58,4.48,4.48,0,0,0-2.92-.67H326.45v-3.94h11.23v1.57l2.53-.54v-.09a2.93,2.93,0,0,0-.75-2.32,4.78,4.78,0,0,0-2.93-.65h-9.08a4.63,4.63,0,0,0-2.94.67,3.55,3.55,0,0,0-.72,2.58v1.71a3.57,3.57,0,0,0,.72,2.6,4.5,4.5,0,0,0,2.93.68h10.24V213H325.76v-1.73l-2.62.49v.13a3.5,3.5,0,0,0,.73,2.61A4.72,4.72,0,0,0,326.84,215.14Z"/><polygon class="cls-1" points="41.94 189.64 0 147.77 0 193.01 2.28 193.01 2.28 153.04 44.22 194.95 44.22 149.71 41.94 149.71 41.94 189.64"/><rect class="cls-2" x="55.59" y="149.43" width="37.75" height="1.87"/><rect class="cls-2" x="55.59" y="170.04" width="34.62" height="1.87"/><rect class="cls-2" x="55.59" y="191.12" width="37.75" height="1.87"/><polygon class="cls-1" points="100.91 151.37 121.58 151.37 121.58 193.01 123.85 193.01 123.85 151.37 144.52 151.37 144.52 149.44 100.91 149.44 100.91 151.37"/><polygon class="cls-1" points="174.98 169.81 193.09 193.9 195.77 191.62 177.01 166.57 174.98 169.81"/><polygon class="cls-1" points="154.15 187.27 154.15 148.97 150.5 148.97 150.5 195.88 195.86 150.49 193.28 148.14 154.15 187.27"/><polygon class="cls-1" points="197.52 192.01 200.7 193.66 220.36 154.36 240.01 193.66 243.2 192.01 220.36 146.33 197.52 192.01"/><rect class="cls-1" x="205.21" y="179.64" width="30.27" height="3.31"/><path class="cls-1" d="M279.48,172.62l1.75-.21a12.05,12.05,0,0,0,7.53-3.89,11.71,11.71,0,0,0,2.66-7.84,11.55,11.55,0,0,0-2.71-8,12.39,12.39,0,0,0-7.51-3.79l-1.64-.2h-33V193h3.64V152h29.15l1.44.19a8.58,8.58,0,0,1,5.09,2.6,8.43,8.43,0,0,1,1.88,5.87c0,4.91-2.28,7.68-6.95,8.46l-1.46.2H252v3.28h11.21l26.47,21.2,2.21-2.61-23.22-18.59Z"/><polygon class="cls-1" points="296.83 148.71 296.83 193.25 341.44 193.25 341.44 189.94 300.48 189.94 300.48 152.02 341.44 152.02 341.44 148.71 296.83 148.71"/><rect class="cls-1" x="302.28" y="169.34" width="39.16" height="3.28"/><polygon class="cls-1" points="238.73 136.03 102.71 136.03 102.71 0 238.73 0 238.73 30.81 232.41 30.81 232.41 6.32 109.03 6.32 109.03 129.71 232.41 129.71 232.41 105.22 238.73 105.22 238.73 136.03"/><path class="cls-2" d="M150.5,100.45V35.58h1.41L195.08,85.3V35.58h6.4v64.87H200L157.2,51.33v49.12Z"/><path class="cls-2" d="M219.67,59.92,245.6,35.58h8.71l-31.16,29.1,33.58,35.77H248.1L214.41,64.63Z"/></g></g></svg>