<svg id="Object" xmlns="http://www.w3.org/2000/svg" viewBox="0 0 3279.44 1013.23"><defs><style>.cls-1{fill:#272425;}.cls-2{fill:#7f7f81;}.cls-3{fill:none;}</style></defs><path class="cls-1" d="M62,305.17c-4-3.31-6.15-5.23-6.15-5.23C56.51,301,58.74,302.8,62,305.17Z" transform="translate(-44.21 -108.77)"/><path class="cls-1" d="M243.59,488.19l-.17-.06A.77.77,0,0,0,243.59,488.19Z" transform="translate(-44.21 -108.77)"/><path class="cls-1" d="M240.29,479.68c.55-7.49-4.77-10.93-7.53-12.65s-16.78-11.7-17.88-13.51c-.81-1.32-8.4-4.46-12.48-6.92a10.39,10.39,0,0,0,1-4.44,11.11,11.11,0,0,0-8.32-10.53,25.2,25.2,0,0,0-.17-3.4c-1.71-13.9-14.19-32.54-27.83-41.54-14.39-9.49-12.3-17.47-11.37-19.62q5.76,3,11.73,5.86c64.76,31.13,99.05,39.81,99.05,39.81l-51.16-23.48-2.72-16.33,26.67-46.45-26.67-16.33-10.88,8.67.54-13.27s-26.66-22.45-54.42-17.86c0,0-27.21,39.81-25.58,55.12,0,0-43.63-25.62-60.24-37.64A547,547,0,0,0,151.75,365c-1.19,2.47-3.86,11.52,13.68,23.1,13.81,9.11,24.86,29.84,26.23,41.11a9.79,9.79,0,0,1,0,1.94h0c-6.49,0-11.74,4.93-11.74,11a10.79,10.79,0,0,0,5,9,20.29,20.29,0,0,0,4.21,8.27c6.88,8.26,19,18.33,25.69,25.55s2.2,12.65.18,16.43a12.51,12.51,0,0,0,4-6.62c1-4.3-.55-10.84-.83-10.84a16.42,16.42,0,0,1,3.67,14.11c-1.83,8.34.09,5.42,2.2,9,0,0-2.47-4.48-1.1-7.66s1.65-10.41.18-14.11-3.48-9-3.57-9.29,13.57,6.71,14.86,15.14,4,9.38,5.5,10.41c0,0-5.5-12-5.41-17.29s-1.1-8.09-4.5-11.27c0,0,7.71,1.29,8.63,8.34.86,6.68,3.62,6.5,4.69,6.82C242.69,487.83,239.81,486.22,240.29,479.68Z" transform="translate(-44.21 -108.77)"/><path class="cls-1" d="M1137.45,494.7l-11.54-6.12-7.52-62.11s-81.28,73.4-90.81,80.93c0,0,4,48.46,13.55,76.22l22.74-23.86a61.51,61.51,0,0,0,7.36,12.53c8,10.16,7.32,22,5.62,29.7l-.36,0c-5.12,0-9.28,3.74-9.28,8.36a7.61,7.61,0,0,0,1,3.79c-1.12,1.9-2.28,5-2.28,10,0,9.5-1.51,15.78-5.77,20.53s-2.51,12.2-2.51,10.11c0-.15-.75-5.51,2.76-8.27a34.78,34.78,0,0,0,0,11c1,5.67.25,7.35-2,9.34,0,0,5.52-2.29,4-7.81a9.21,9.21,0,0,1,2-8.88s-.75,7.2,2.26,13,4.52,8.88,4.52,8.88-2.51-10.42-3.26-14.09a44.86,44.86,0,0,1-.76-7.81s5.52,5.51,6.27,11.64,1.26,7.81,5,10c0,0-3.26-7.82-2.51-11.34s-2.25-8.12-2.51-9.19,6,2.3,7.53,9.65l3.26,7.05s-2.26-8-2.51-11.34-2.26-6-3-7.2-.5-5.67,0-8.73,4.52-10,4.27-12.72c-.21-2.25-.25-8.06-.39-11.38a8,8,0,0,0,3.15-6.25,8.33,8.33,0,0,0-5.21-7.5c1.61-8.38-.19-20.93-14.36-43.41-.28-.44-.51-.87-.77-1.31l5.29-5.54,28.59,13.17s14-2.82,22.58-11.76,19.06-26.35,19.56-36.7S1137.45,494.7,1137.45,494.7Z" transform="translate(-44.21 -108.77)"/><path class="cls-1" d="M661.23,519.26v-5.5l36.32-36.26L605.32,541c-3.93-8.14-7.62-20.46-10.29-32.15-2-8.95,4.23-16.21,9.84-20.74a7.49,7.49,0,0,0,12-.92c3.24-1.58,3.24-9.54,4.92-11.69,1.82-2.34,4-4.67,8.12-10.26s13.43-11.51,13.43-11.51c-4.14-.31-12.93,6.07-12.6,5.44s5.14-5.13,7.79-6.06,4-1.87,3.82-4.2a29.19,29.19,0,0,0-1.16-5.44s-4.81,2.8-4.31,2.33,2.65-2.79,2.65-2.79l-3.81-2.65-.5,1.25s-3.49,4.23-5.71,7.08c1.14-2,2.48-4.52,3.06-5.68a7.16,7.16,0,0,0,.82-3.58s-3.81,6.37-6.13,9.48-5.63,3.27-10.44,8.24-2.49,8.09-1.82,12.59c.45,3.1-1.73,5.94-3.15,7.44a7.23,7.23,0,0,0-1.33-.13,7.07,7.07,0,0,0-7.29,6.84,6.57,6.57,0,0,0,.22,1.6c-2.85,1.14-6,3.5-9,9.07-8.57,16.47,3.21,37,10.17,46.92l-14.86,10.23L513.6,617.61l49.8-25.83c4.1,19.23,35.15,59.34,35.15,59.34l10-8.79s0-18.13.58-19.78,8.2,12.64,8.2,12.64,11.13-10.44,14.06-15.38,67.37-66.49,67.37-66.49Z" transform="translate(-44.21 -108.77)"/><path class="cls-1" d="M1121.68,221.22l-25.42,20.94s14.42-27,16.5-30.07c-4,1.12-56.83-13.86-76-6a198.12,198.12,0,0,0-36.58,20.36s-71.93-36.06-75-33.15c-1,.9,3.83,42.86,8.52,82-14.67-12.26-25.42-27.64-23.71-46,1.84-19.6,1.39-30.63,0-37a9.9,9.9,0,0,0,3.68-7.63,9.76,9.76,0,0,0-2.78-6.79c.63-5.75-2.11-14.14-4-27.21-2.14-15.21,8.88-36.16,8.88-36.16-8,3.16-14.08,38.45-15,34.15s2.15-16.07,4.59-22.38,5.2-17.22,4-17.5-11.63.57-11.63.57v7.17l-3.36-7.46s-6.43-1.14-3.67,1.72.61,13.2.61,13.2c0-8.32-7.95-18.65-4.89-12.91a10.64,10.64,0,0,1,.44,1c2.54,6.71,1.8,24.68-2,42.9-3.12,15.06,4.07,24.1,7.34,27.33a9.74,9.74,0,0,0-.31,2.37c0,5.63,4.86,10.19,10.86,10.19a11.33,11.33,0,0,0,5.52-1.43,16.59,16.59,0,0,1-.16,7.16c-2.76,11.2-6.12,55.1,7.34,63.42,3.69,2.28,10.35,7.36,18.46,13.36,4.05,33.73,8,64.77,8,64.77s129.6,64.55,144.48,66.87l-5-75.6s6.82-8.72,8.68-10.47,32.24-57,34.1-59.89S1121.68,221.22,1121.68,221.22Z" transform="translate(-44.21 -108.77)"/><path class="cls-1" d="M1112.76,212.09c.14,0,.22-.09.24-.17S1113,211.79,1112.76,212.09Z" transform="translate(-44.21 -108.77)"/><path class="cls-1" d="M878.58,370.76a2.89,2.89,0,0,0-3.66-2s-25.47,6.87-49.68,13.32a96.5,96.5,0,0,1,11.37-20.84,4.9,4.9,0,0,0,2.3.57,4.7,4.7,0,0,0,4.84-4.53,4.26,4.26,0,0,0-.43-1.85,68.74,68.74,0,0,0,5.39-4.35c3.3-3-.12-6.54,1.65-8.86s3.78-3.76,5.78-6.53,4.61-5.76,7-9.63S864.29,316,864.29,316c-1.54,6.87-5.08,9.52-5.08,9.52,2-2.1,3.9-10.07,3.9-10.07l-1.77-1.66c-3.07,1.88-9.33,15.72-8.74,13.84s2.84-7.42,4.13-9a43.14,43.14,0,0,0,3.43-5.87l-3.07-2.21-2.25,3.32s1.3-3.43.83-4.21a3.93,3.93,0,0,0-1.77-1.22s.59-.77-.94,1-2.72,9.19-2.72,9.19c-1.3-4.1.47-10.63.47-10.63a20.64,20.64,0,0,0-2.24,10.63c.24,3.87-3.54,10.18-3.54,10.18-.94,3.66-2.83,8.09-3.54,10.08a11.78,11.78,0,0,0-.24,5.31c.12,1.44-.12,2.33-1.41,4.32a14.65,14.65,0,0,0-1.61,4.28,4.63,4.63,0,0,0-4.06,4.47,4.47,4.47,0,0,0,2.21,3.8,75.19,75.19,0,0,0-12.89,21.5c-17.34,4.61-33.68,8.92-39.08,10.22-13.12,3.15-19.53,6.3-19.53,6.3,4.27,33.76,19.83,91.85,19.83,91.85,3-2.58,30.82-8.87,32.34-8.87s7.94,1.43,9.16,1.14,2.44,1.43,18.3-1.72,22.27-13.16,22.27-13.16c4.28-1.14,32-9.16,32-9.16S879.5,373.62,878.58,370.76Z" transform="translate(-44.21 -108.77)"/><path class="cls-1" d="M1265.26,384.66c-3.57-.92-2.6-3.35-2.6-3.35l9.1-4s10.72,4.58,14,7.93,3.25,1.83,3.25,1.83a5.28,5.28,0,0,0-1.3-4.57c-2-2.44-2-6.1-2.6-8.84s-2.27-9.75-4.22-9.75-14.62-2.74-17.87-3.35-4.88-5.79-8.12-9.76S1238.3,329.2,1237,327.68s-5.53-7.32-7.48-8.23l-27,32.18c-.86-11.49,1.06-25.34,11.77-35.84,9.74-9.54,14.11-15.93,15.9-20.73h.35c5.38,0,9.74-4.09,9.74-9.14a8.67,8.67,0,0,0-.17-1.7c1-1.08,1.94-2.28,2.91-3.61,3.52-4.78,2.61-5.61,3.13-9.93s1-6,.91-8.92a25.23,25.23,0,0,1,1.31-8.37c.78-2.57.52-4.87.91-7.45s2.08-5.33,2.74-6.71a36.1,36.1,0,0,0,1.69-4.87c.39-1.38-.52-4.23-.52-4.23s-.39,1.38-1.3,5-1.83,2.67-3,3.77a7.6,7.6,0,0,0-2.22,4.6c-.26,1.93-5.08,12.88-4.17,10.48a44.27,44.27,0,0,0,1.83-7.9c.39-2.3,2.34-5.89,3.78-8.19s2.34-7.35,1.69-8.09-5.21-.92-5.21-.92-3.13,5.79-3.13,5.33,1.83-5.42,1.83-5.42l-1.83-.19s-2.08-.18-2.47,1-.27,13.15-.27,13.15l-1,.46c-.13-.37-1-1.75-.13-5.71s-.91-8.55-.91-8.55a26.42,26.42,0,0,1-.13,5.61c-.39,3.59-1.82,3.77-2.22,6.44-.28,1.92.45,5.6.89,7.51a23.09,23.09,0,0,1-2.84-5.21,9.33,9.33,0,0,1,.52-8.19c-1.82,1.75-3.78,1.29-1.3,7s5.86,20.51-1.17,30.44a52.55,52.55,0,0,0-3.06,4.78,9,9,0,0,0,.43,17.38,39.47,39.47,0,0,1-9.57,14.09c-12.27,11.79-18.74,21.52-16.39,43.7-9.39,11.19-18.86,22.45-24.22,28.83-13.32,15.84-10.72,20.11-8.45,24.37s22.1,39.62,31.84,43.88l17.55-21.63s9.09,1.83,16.24-.61,15.27-5.49,18.85-7,11.69-4.57,14.94-6.09,15.92-16.15,17.87-18a8.09,8.09,0,0,1,3.57-2.14S1268.84,385.57,1265.26,384.66Z" transform="translate(-44.21 -108.77)"/><path class="cls-1" d="M1430,374.81c-1.88-20.56-1.25-23.5-1.25-23.5s-11-4.11-16-3.53c0,0-7.52-27.61-8.46-31.14s-2.51-5.58-3.13-1.76c0,0-27.91,12.54-51.61,23.78-17.2-17.76-10.09-28.65-5.17-33.14a3.32,3.32,0,0,0,2.6,1.23,3.17,3.17,0,0,0,3.26-3.06c0-.11,0-.22,0-.33a21.74,21.74,0,0,1,6.16-4.26c3.53-1.33,11.56-13.11,10.22-12.45a8.26,8.26,0,0,0-2.77,3.42c-.09.38-9.94,7.22-9.94,7.22s1.34-1.14,2.49-2.37a12,12,0,0,0,2.39-3.8c.48-1.24,3.15-3,4.78-3.9s1.53-3.71,1.53-3.71a22.47,22.47,0,0,0-3.64,2.48c-1,.85-2.29,2.18-2.86,2.75a16.82,16.82,0,0,1-2.68,1.62c1.24-1.05,1.05-1.24,3.63-4.09s4.11-3,4-3.33-1.82-2.66-1.82-2.66a10.58,10.58,0,0,0-3.15.57c-.86.48-.86,2.38-1.72,3.61s-3.92,5-3.92,5c.09-.67-.77-2.57.57-3.14s3.15-5.42,3.15-5.42-3.82,4.18-4.77,5.61-1.25,3.9-1.63,6.08a11.79,11.79,0,0,1-3.15,5.89,5.51,5.51,0,0,0-1.23,2.4,3.07,3.07,0,0,0-2.15,2.86,2.72,2.72,0,0,0,.15.86c-5.88,3.37-6.53,10.61-7.06,15.33-.34,3,5.07,11.22,11.29,19.47-16.25,7.73-30.19,14.7-31.2,16.36-2.5,4.12-.63,5.29-.63,5.29l3.45,12.63s21.3,76.68,22.87,81.38c0,0,.62,2.35,5.32-.88s47-21.45,53.87-25.86,27.57-12.92,27.57-12.92l-2.51-10.28S1431.83,395.37,1430,374.81Z" transform="translate(-44.21 -108.77)"/><path class="cls-1" d="M753.52,155.78c2.17-4.23,1.63-6.43,1.63-10.49s2-8.79,1.44-13.19,2-18.27,2-18.27c-1.8,1.7-3.78,5.76-4.68,8.29s-2.35,7.27-1.81,11.17-2.34,16.06-2.34,16.06c1.62-5.92,0-10.15.18-13.87s.9-12,2.34-15.22,3.25-6.26,3.25-6.26l-4.87-2.53s-3.79.17-4.69.67-1.62,4.57-1.8,6.77-3.43,11.5-3.43,11.5.72-4.23,1.62-8,2-10.32,2-10.32-3.25-1-3.07-.5-3.24,6.93-3.6,10.14-4.69,6.77-6.5,12.52.54,21.14.54,21.14c-2.34-3-4.14-15.56-4.14-15.56.18,2.37-.36,11,2.34,15.9s2,10.82.54,16.07c-.89,3.23-.89,8.12-.75,11.41a6.47,6.47,0,0,0-5.17,6.18,6.26,6.26,0,0,0,2.9,5.22l-.06.15c-3.85,7.66-20.41,24.13-37.94,36-12.6,8.51-21.89,22.85-26.77,31.21-3-13.13-13.16-60.37-14.35-63.94l-26.51,7.87,3.79,3.8L628.82,228s-28.94,3.05-31.65,3.81-8.38,4.06-10.55,4.82-18.39,10.91-16,11.67,7,3,7.58,3.8.27,9.14,2.16,13.19,3,12.69,4.06,16a76.42,76.42,0,0,0,5.41,11.16c1.08,1.78,5.14,8.37,5.68,10.91s3.52,10.4,3.25,13.45-.82,13.95,1.35,15.73,5.68.5,5.68.5l2.7,3.81s11.37-2.28,15.42-2.79S651,329,651,329s2.17,11.42,2.17,13.7-.27,6.6-.27,6.6l26.24-.51s1.35-8.62,0-13.19c-1.29-4.35-13.6-61.73-15.48-69.46a91,91,0,0,1,12.23-19.59c10.28-12.68,23.8-21.31,31.92-26.38,7.47-4.68,20-21.82,21.92-24.5a7.1,7.1,0,0,0,1.61.2,6.63,6.63,0,0,0,6.77-6c2.9-2.77,6.63-6.83,6.76-8A83.2,83.2,0,0,1,747.93,168c1.63-4.57,19.12-21.48,19.12-21.48C760.2,149.35,751.36,160,753.52,155.78Z" transform="translate(-44.21 -108.77)"/><path class="cls-1" d="M514.16,490.88,524,467.6l-91.37-27s-15.23,36.1-23.59,55.82c-10.24,2.37-19.94,7.12-25.72,16.11-12.55,19.49-24.54,38.2-31.79,47.21a8.6,8.6,0,0,0-4.21-1.1,8,8,0,0,0-8,6c-4.78,3-12.31,9.35-12.48,19.38-.25,14.35,8.28,34.11,6.27,47.75s-.75,25.41.5,28.71c0,0,1.76-19.3,2.26-24.94,0,0-.75,23.29,6.27,25.17l7-1.41s-2.25-10.12-3.76-17.18c0,0,5,12,7.27,16l7.78-2.35s2.6-4.35-.5-12.15a30.55,30.55,0,0,0-2-4.08c-6-10.35-12.54-19.76-12.79-23.76,0,0,15.8,20.93,18.06,28.7,0,0-3-17.65-9.28-26.35a36.44,36.44,0,0,1-7-19.29c0-1.89,3.26-9.65,3.26-14.12,0-2.79.39-7.58.56-11.55a7.6,7.6,0,0,0,4.7-6.92,7.42,7.42,0,0,0-2.38-5.4,15.24,15.24,0,0,0,2.13-3.18c2-4.24,33.37-48.23,40.89-52.94a37.69,37.69,0,0,1,11.18-4.22L405,506c-5.64,13.23-16.64,39.41-16.92,40.21s15.79,6.34,24,9,64.29,21.42,64.29,21.42L485.12,557s13.81-4.76,21.71-15.08,17.2-37.29,15.79-42.58Z" transform="translate(-44.21 -108.77)"/><path class="cls-1" d="M1523,537.57a17.42,17.42,0,0,0-3-1.89c-1.62-.76-1.62-6,.4-13.43s-6-17.6-6-17.6l-25.82-11.54,5.85-50.32-35.43,32.94c-.26-8.08,1.31-15.63,6.89-19.54,11.24-7.88,15.07-13.91,16.68-17.94a4.52,4.52,0,0,0,5.26-4.27,4.16,4.16,0,0,0-1.09-2.76,54.78,54.78,0,0,0,1.09-7.67c0-1.7,2.42-5.81,4.54-9.08s2.42-5.67,3.93-9.5,2.12-5.4,1.51-8.38a9.79,9.79,0,0,1,.91-5.82c-2,1-2.72,1.14-2.87,4.12s-5.75,11.92-5.75,11.92c.15-.43,2.12-5,2.72-6.53s1.51-8.23,1.51-8.23l-4.54-.28-.6,6.24v-.71c0-1.56-.76-5.67-1.21-5.67s-2.12-.57-2.12.42-.15,9.37-.15,9.37-.45,2.69-.3-.57-1.52-9.65-1.52-9.65l.16,7.1c.75,4.54-3.64,13.76-5.91,21.71a16.22,16.22,0,0,0,.94,12.08,4.08,4.08,0,0,0-.48,1.89,4.3,4.3,0,0,0,2.68,3.92c-1.88,4.37-6.09,11.74-14,15-8.66,3.59-10.46,12.59-9.63,24.08l-33.19,30.86,1.82,69.43s33.28-21.38,33.68-21.95c0,0,13.32,6.63,20.58,7.76s19.16-3.21,23.2-5.11,12.3-10.4,14.12-12.48a34.39,34.39,0,0,1,4.64-4.17l-2.63-1.89Z" transform="translate(-44.21 -108.77)"/><path class="cls-1" d="M347.59,507.12c.42-4.61,6.84-6.75,6.84-6.75-4.92.06-6.24,3.15-6.24,3.15-5.58,1.13-12.35-.9-15.89-6.47s-13.86-3.94-23.82-2.64c-7.62,1-12.07,6.51-13.74,9.06a5.7,5.7,0,0,0-3.27,5.06,5.62,5.62,0,0,0,2.28,4.45c-3.56,4.45-10.22,10.51-24.35,16.84-6.09,2.73-12.71,7.52-19.13,13a21.29,21.29,0,0,0-5.9-1.43l-90.73,69.34s31.92,17.86,33.6,17.86a33.54,33.54,0,0,0,5.61-1s5,6.83,9.52,9.46,17.36,5.77,48.73-9.46,42-27.32,42-27.32S271.26,573.48,264,572.43l21.84-13.13s-20-10.43-32.62-15.35c1.7-1.67,3.39-3.37,4.91-5,6.52-6.83,23.33-14.12,27.84-17.65a79.73,79.73,0,0,0,8.17-8.09,6.35,6.35,0,0,0,3.5,1,6,6,0,0,0,6.06-5c1.28-1.36,4.75-5.07,5.52-5s9.6,1.18,10.38,2.08,4.68,6.42,6.42,7.2,1.86.79,7.62,1.47a30.21,30.21,0,0,1,11.21,4.22c-.48-1.8-7.85-4.33-7.85-4.33,1.43.22,7.73,2,9,2.08s5.4-.34,6.48-2.93a23.34,23.34,0,0,0,1.38-5.85l-3.56,1.4c.63-.25,3.06-1.34,3.68-3.2.72-2.14-1.14-3.94-1.14-3.94C350.59,502.73,347.59,507.12,347.59,507.12Z" transform="translate(-44.21 -108.77)"/><path class="cls-1" d="M1737.22,474.72s-83.6-47.43-92.22-47.43l-5.46,21a49.82,49.82,0,0,0-8.9,2.53,168.73,168.73,0,0,1-16,5.78,5.18,5.18,0,0,0-3.79-1.63,5,5,0,0,0-4.95,3.78,8.93,8.93,0,0,1-5.15-3.58c-4.21-5.73.42-14.42,7.58-21.33,0,0,8.84-7.9,10.53-16.19,0,0-9.69,14.81-14.53,18.56,0,0-12,10.66-4.63,20.14,0,0-10.74-8.89-1.06-30.41,0,0,1.27-13.82,0-16.59,0,0-10.1,7.11-12.84,10.86,0,0,3.37,11.06,2.53,17.18,0,0-4-15.4-5.06-16s-2.94.79-2.94.79-1.69,6.91-1.69,7.9,8,17,10.74,22.31c1.9,3.71,2.89,5.5,4,6.19-3.1-.83-9.73-4-14.48-16.26,0,0-4-7.11-4-13.63,0,0-5.89,4.74-4.63,8.89,0,0,1.89,9.28,6.74,13.43,0,0-9.06-8.49-16-7.7,0,0,7.79,4.34,12.42,8.88,0,0-12.85-6.32-17.9-5.92l-1.68,3.16a27,27,0,0,1,8.84,5.53c3.79,3.75,6.53,11.06,13.9,11.65s17.26.39,23-2.37a32.41,32.41,0,0,1,7-2.18,5.09,5.09,0,0,0,4.35,2.38,4.91,4.91,0,0,0,5.06-4.74,4.44,4.44,0,0,0-.81-2.55,71.15,71.15,0,0,1,7.55-2.19c2.52-.4,6.52-2.37,12.84-3,1.21-.12,2.25-.2,3.17-.26l-3.71,14.3,3.16,2.16s-17.81,16.71-18.1,19.4,1.44,5.39,3.16,5.39,29.31,19.4,34.77,22.91,24.13,13.74,25.28,13.74,10.63-1.89,10.63-1.89l13.22-20.48s19.82,11.32,21.54,11.86,3.17-5.66,3.45-8.89,6-17.25,7.19-18.87,4.88-12.12,4.88-13.74S1737.22,474.72,1737.22,474.72Z" transform="translate(-44.21 -108.77)"/><path class="cls-1" d="M473.43,229.49l2.51-9.41s-26.59-20.23-47.66-24a263.56,263.56,0,0,1-37.12-9.41s-18.63,49.66-31.74,90.67l-.38.07c-30.88,5.39-51.34,9.37-61.56,15.22a9.83,9.83,0,0,0-5.57-1.7,9.66,9.66,0,0,0-7.8,3.84c-5.45,1.21-28.3,8.16-11.17,37.36,19.33,33,29.87,24.06,44.28,20.11s20.38,2,22.49,4.28c0,0-3.86-11.53-24.6-6.92,0,0,15.82-5.27,20.74-7.91,4.5-2.41,14.27,1.24,17,3.65-2.88-3-16-15.47-29.64-6.95-1.05.66-9.48-2.3-13-3,0,0,18.28-3.63,24.95-4.29s4.92-8.24,4.22-12.19c0,0-2.46,10.54-14.76,11.53s-11.6-1.64-13.35-3.29-6.33-2-10.9-3.3-9.84-4.28-8.08-7.58c1.55-2.92,8-6.09,6.6-10.44a8.47,8.47,0,0,0,.5-11.54A62.9,62.9,0,0,1,312,289.28c9.87-2.83,32.58-8.47,47.26-11.28-7.75,24.31-13.51,45.47-12.2,51.24,0,0,32.11,19.29,37.62,22.58s62.71,18.83,62.71,18.83l7.53-36.71s26.59-4.7,32.61-10.82,30.6-48.46,34.11-57.87l3.52-9.41Z" transform="translate(-44.21 -108.77)"/><path class="cls-1" d="M352.83,345.34c.38.39.59.64.59.64A2.82,2.82,0,0,0,352.83,345.34Z" transform="translate(-44.21 -108.77)"/><path class="cls-2" d="M877.85,875.51a19,19,0,0,1,2.34-2.5s9.15-.7,11.49-1.33l.16,2.42a8.26,8.26,0,0,0-2.16,1.25c-.75.7-1,1.41-1.59,1.64a10.2,10.2,0,0,0-3.08,1.49c-.66.7-1.49.78-2.33,1.32s-5,.94-6.57,1.1-4.17.46-4.17.46S876.94,876.76,877.85,875.51Z" transform="translate(-44.21 -108.77)"/><path class="cls-2" d="M792.36,1122H924.2l-.12-.26c-6.9-15.86-54.52-82.85-55.9-85.76s-5.52-5.18-5.52-7.45.69-4.53,3.79-14.89,5.18-41.1,7.25-57.28,4.14-43.69,4.14-43.69a26.33,26.33,0,0,1,5.18-6.15c3.1-2.59,12.07-9.39,14.84-11.33s3.1-6.47,4.14-12,0-11.33.34-14.24,0-7.77-2.76-14.89-7.08-13.16-10-11.33c-4.14,2.59,1,14.56,1,14.56s-6.56,4.21-7.25,5.83-9.66,6.8-12.08,7.44-10,6.15-11.73,9.07-4.14,12-5.17,18.12-8.61,50.78-8.61,50.78l-.79,5a199.48,199.48,0,0,1-5.74,33.75s-.9,18.6-7.21,17.75-23.89-3-26.14,7.19.45,16.06,2.7,19.87-5.41,12.25-8.56,15.21-10.37,12.69-10.37,16.91-.45,10.57-.45,10.57l6.76,8.46s-1.35,12.25-.9,17.75,0,6.34-1.8,12.26A26.43,26.43,0,0,0,792.36,1122Zm79.58-240.64s5-4.6,5.91-5.85a19,19,0,0,1,2.34-2.5s9.15-.7,11.49-1.33l.16,2.42a8.26,8.26,0,0,0-2.16,1.25c-.75.7-1,1.41-1.59,1.64a10.2,10.2,0,0,0-3.08,1.49c-.66.7-1.49.78-2.33,1.32s-5,.94-6.57,1.1S871.94,881.36,871.94,881.36Z" transform="translate(-44.21 -108.77)"/><path class="cls-2" d="M63.61,1054c1-13.64,8.53-37.17,6.52-50.34s-4-19.29-1.5-30.12,2-14.58,5.52-18.35,5.51-4.7,5.51-4.7,4.52,7.53,7,7.06,1.5-46.59,3.51-58.82,2.51-66.34,5.52-72,6.52-16.94,4.51-25.88-5.51-17.88-6-22.11-8-16-10.53-19.29a111.8,111.8,0,0,1-6.52-10.83s6.52-4.23,10.53-.47l-8-15s2-5.65,11-1.41,10,9.88,12.54,15.52,13.05,23.06,15.05,26.35,5,2.82,8.53,8.94a152,152,0,0,1,7,14.59s6-16.94,14-15.06,6,2.82,2.51,8.47-8.53,16-9.53,20.23a45.74,45.74,0,0,1-8,15.53c-3.51,4.23-8,3.29-9,11.76s.51,52.23,1,68.23,3.51,43.76,5,51.29,2,18.82,3.52,21.64,8,8.94,10,16S154.92,1014,153.91,1030s-2.5,14.11-2.5,14.11,6.52,10.82,5,17.88-3.51,6.59-2.51,8.94,8,8,10,12.71a1.3,1.3,0,0,0,.08.17q.21,7.85.63,15.73c-2.29,3.76-4.88,8-4.22,9.5.87,2,4,.2,4.81.59q.41,6.18.88,12.37H44.21C53.39,1096.18,62.93,1063.29,63.61,1054Z" transform="translate(-44.21 -108.77)"/><path class="cls-2" d="M510.88,1118.28c2.51-.94,7-2.82,7-6.59s1.51-13.64,3-15,2.51-4.71,4.52-7.53,6.52-10.82,9.53-15.06,12.54-12.7,12.54-12.7l3-3.77s11-34.35,14.55-54.11,5-48.93,5-51.28-4,0-3.51-3.77,3-4.23,2-7.53-3.51-10.35-6-12.7-8-12.23-10-15.06-5-20.23-8-24-8.53-6.59-8.53-8,5-4.71,10-1.41,12.54,11.76,12.54,11.76,5-32.94,12.54-32.94c7.68,0,2.51,11.29.5,16s-2,15.06-2,15.06l.5,2.82,3-2.82s2.51-14.12,6.52-14.12,8.53,1.41,9.53,5.65c0,0,7.53-.94,9,3.76l1.51,4.71s5.52,0,7.52,2.82,3.51,9.88,2.51,11.76-.5,13.18-1,17.88-1.51,13.65-1.51,13.65l-2.51,4.7s5,.94,3.52,4.71-4.52,2.82-4.52,2.82-2,8.94-1.5,13.65,4.51,47.52,3.51,56-.5,38.58-2.51,45.17c0,0,32.61,29.64,31.6,34.82a216.34,216.34,0,0,1-6.17,24.42h-120C509.31,1120.08,510.07,1118.58,510.88,1118.28Z" transform="translate(-44.21 -108.77)"/><path class="cls-2" d="M1370.14,1121.45c10.62-5.16,11.8-17.33,14.94-22.12s14.94-43.14,16.51-47.93,0-15.12,0-22.12,3.15-12.54,2.76-19.92-3.94-36.5-3.94-36.5,7.47-1.47,10.62-2.58c0,0-1.18-12.17-3.93-15.12s-13.76-13.27-15.34-16.59-5.11-18.8-5.11-21a17.43,17.43,0,0,0-1.17-5.17s-15.34-2.58-16.91-2.95c0,0-3.54-6.26,9.83-4.05l5.9-2.58s-19.66-1.11-24-1.85-5.5-5.16,0-5.53,17.3.37,17.3.37,1.58-5.16,5.11-4.79,9.44,4.06,13.37,4.06h11s-28.31-29.13-28.7-35c0,0,2-7,9,1.1s11,11.8,11,11.8-5.9-20.28-2-19.54,14.94,25.44,17.3,29.87,7.08,9.58,9.44,10.32,6.68,1.48,7.86,5.9a54.21,54.21,0,0,1,2,11.06c.4,4.43.79,16.59,2.36,22.86s1.57,12.17,4.33,17.7,6.29,10.32,5.89,12.53,3.54-.73,3.54-.73,2,15.85,2.36,18.8,4.33,14,2.75,23.6,3.54,19.91,3.54,28.39-5.5,47.56-5.11,60.1c.27,8.59,2,19.25,3.59,28.2H1369.2C1369.53,1121.79,1369.85,1121.6,1370.14,1121.45Z" transform="translate(-44.21 -108.77)"/><path class="cls-2" d="M1467.21,879.83a13.19,13.19,0,0,1-3.26-1.2c-.77-.25-2.15-.89-2.41-1s.18-.73,1.38-1,12.88.24,12.88.24-3.43,2.66-4.55,3.31S1468.84,880.08,1467.21,879.83Z" transform="translate(-44.21 -108.77)"/><path class="cls-2" d="M1459.31,869.2a12.67,12.67,0,0,0-2.92,1.61c-.26.24-1.8.49-2.15.16a23.76,23.76,0,0,0-2.06-2c-.26-.08.6-.89,2.06-1.13s13.32-.32,13.32-.32a6.53,6.53,0,0,1-2.67,1.13A43.94,43.94,0,0,0,1459.31,869.2Z" transform="translate(-44.21 -108.77)"/><path class="cls-2" d="M1468.21,1122h102.9c2.8-15,5.83-29.61,5.83-29.61,1.55-12.76-1.38-14.05-6.2-24.22s-7.4-13.89-9.3-25.84-4.82-23.9-7.75-28.74-4.64-9.85-4.47-13.4a25.19,25.19,0,0,0-3.45-15.34c-3.78-6.3-6.54-15.67-6.71-18.9s-2.24-3.06-2.24-4.19-4.65-16.8-5.68-20a12.48,12.48,0,0,0-2.93-5l-.86-4.2c-.86-4.2.69-6.62-2.06-10.66s-7.06-9.69-9.47-15.82-7.06-32.46-7.75-36.33-1.72-8.88-3.1-10.66-6.54-3.07-9.47-4.36-7.4-12.43-9.12-15.34-3.45-4.84-5.51-5.17a89.08,89.08,0,0,1-12.23-3.87,16.48,16.48,0,0,0-7.92-1.46c-2.92.17-8.61,0-8.61,0a3.72,3.72,0,0,0-1.41,2.1c-.11,1.13,1.74,4,4.79,4.91s10.67,1.43,11.33,1.63.76,1.43,3.16,2.45a14.71,14.71,0,0,1,4.13,2.76,4.87,4.87,0,0,1-3,.21,17.58,17.58,0,0,0-4.13-.52c-1.2,0-3-.71-4.14-.81a59.74,59.74,0,0,1-5.88-1.54,56.39,56.39,0,0,0-8.17-1.43,23.72,23.72,0,0,1-8.06-1.94c-3.38-1.43-3.93,1.84-3.71,4.09s2,3.17,8.39,5.62,10.13,3.88,14.59,4.08,9.92,4,10.79,5.11.11,1.13-1,1.53a26.38,26.38,0,0,1-5.12,1.64c-1.64.2-11.44,1.43-14.27,2.14s-8.82.52-8.82.52c-10.13-5.83-12.74,3-11.08,5.62s6.09,5.71,11.62,7.78,6.64,7.27,10,9.35,1.66,4.15,4.43,9.86,11.62,15.05,15.49,16.61,7.75,8.3,14.39,10.9,6.09,20.24,6.09,20.24-3.87,6.74-1.66,9.34,1.66,14,1.66,14,1.11,13,1.11,14.54-2.77,8.3-2.22,11.93-5,22.84-5,24.92-3.87,15-6.09,27.5-3.32,51.91-5,56.06-4.42,19.72-4.42,19.72A17.49,17.49,0,0,0,1468.21,1122Zm-.65-254.49a6.53,6.53,0,0,1-2.67,1.13,43.94,43.94,0,0,0-5.58.56,12.67,12.67,0,0,0-2.92,1.61c-.26.24-1.8.49-2.15.16a23.76,23.76,0,0,0-2.06-2c-.26-.08.6-.89,2.06-1.13S1467.56,867.51,1467.56,867.51Zm8.24,9.42s-3.43,2.66-4.55,3.31-2.41-.16-4-.41a13.19,13.19,0,0,1-3.26-1.2c-.77-.25-2.15-.89-2.41-1s.18-.73,1.38-1S1475.8,876.93,1475.8,876.93Z" transform="translate(-44.21 -108.77)"/><path class="cls-2" d="M1223.55,1079.44c2.93-3.66,2.52-7.47.25-11.23,1.81-1.28,3-2.4,3-3,0-2.13,2.72-20,3.62-23.35l1.36-5.1s-21.28-49.24-31.23-64.95-21.28-20-26.26-20.8S1161.66,943,1158,936.58s-7.7-10.61-7.25-13.16-.9-14.86-1.35-16.55,4.07-5.52,10.41,5.94,5.88,14,5.88,14,9.51-1.27,11.32-1.27,3.17-5.1,1.81-9.34-.91-10.62-4.08-14.86-8.6-14-12.22-16.56-9.5-5.94-10-7.22-4.52-4.24.91-5.94,14.48,6.37,21.73,11a59.65,59.65,0,0,1,10.41,8.06s4.52-4.24-8.6-11.88-19-12.31-12.22-16.56c0,0,12.67,4.25,17.65,8.92,0,0,7.24.42,10.86,1.69a100,100,0,0,1,12.22,6c1.36.85,9.06,17.4,11.32,20.8s.91,7.22,0,9.76-7.24,13.16-4.53,17,5.44,4.67,7.7,9.33,16.75,19.11,19.92,22.51,16.29,15.7,16.29,15.7.45-4.67,2.26-5.52,0-14.85,5.89-19.52,24-14.86,41.64-13.17,49.34,1.7,54.32,1.7,16.3-.85,16.3-.85,19.91,29.72,19,35.66.45,10.62.9,15.29-1.36,18.25-1.81,21.65-2.71,21.65-2.26,28.44-1.81,27.17-3.62,34-5.43,11.46-9.51,16.13-6.33,8.06-10.86,14-8.15,10.19-7.24,13.16a35.4,35.4,0,0,1,1.06,7.11h-150C1208.84,1108.68,1211.1,1094.36,1223.55,1079.44Z" transform="translate(-44.21 -108.77)"/><path class="cls-2" d="M1599.4,1120.59c3-6.45,3.89-7.86,4.79-7s17.67-27.52,37.73-48.87,33.54-42.12,37.43-52.8,3.89-24.15,10.48-34,17.67-30,18.87-29.49c0,0,6.89-17.69,10.78-17.41,0,0-1.5-4.5,5.39-2s-.3,27.53-3.29,37.64c0,0,6.88-14.05,10.18-22.47,0,0,11.08-6.18,3.59,20.22s-8.68,28.09-8.38,29.49-.3,9.83-.3,9.83l3.29.28s5.69-12.64,12-18.82,15.87-7.3,13.47-.56-3.89-2.25-8.08,14.61-5.69,12.91-7.49,18-11.08,11-15.57,14-14.67,5.62-22.46,14.61a202.33,202.33,0,0,0-21.26,30.89c-4.79,8.71-18,28.09-22.76,43.25l-.62,2h-58.52C1599,1121.44,1599.23,1121,1599.4,1120.59Z" transform="translate(-44.21 -108.77)"/><path class="cls-2" d="M1013.24,1095.89c4.79-7.27,8.85-15.92,9.22-18.34s5.9-45.33,7-63,1.11-58.83-1.11-64-7.75-11.07-8.85-16.95,0-10.38-4.06-16.61-10.33-13.49-13.28-18.34a46.18,46.18,0,0,1-4.8-11.42c-.37-1.38,4.43-5.53,12.91,3.12s9.6,15.57,16.61,16.26,11.8,2.08,13.65,0,9.59-9.34,9.59-10.38-6.64-14.19-5.54-17,5.17-4.5,5.54-1,2.58,5.88,3.69,7.61l1.11,1.73S1063,881,1063,877.9s-2.21-17.3,1.11-21.11,5.16-2.42,5.16-2.42l1.11,6.92s1.84-16.95,11.44-13.84c1.1.36-1.85,8.65-1.85,8.65s3.69.35,3,2.42-2.58,6.92-2.58,11.42-2.21,7.27-3,13.5-4.8,10.72-5.53,15.57-1.11,11.76-2.59,15.22-6.64,14.54-6.27,17.65-2.21,10.38-2.58,15.22a40.52,40.52,0,0,0,.37,11.77c.74,3.8,0,9.69,0,15.22s2.21,34.95,3,49.14,4.06,31.48,4.06,31.48,8.48,27,10,33.91a37.47,37.47,0,0,1-2.21,21.8c-.65,1.6-2.21,5.83-4.29,11.58h-68.79C1006.56,1110.65,1010.88,1099.46,1013.24,1095.89Z" transform="translate(-44.21 -108.77)"/><path class="cls-2" d="M647,1107.12a64.5,64.5,0,0,0-1.47-8.31s-6.46.87-7.93-.69,0-2.08.73-3.29,5.17-4,4.43-6-2.21-20.94,1.11-28.2,3.32-8.65,8.3-14.36,7.56-11.77,8.48-13.15,3-3.29,4.06-5.71,2.4-4.15,4.06-7.78.92-5,3.14-8.31,3.32-5,5.53-6.4,12-5.19,12-5.19-5.72-42.91-7.19-45.16-16.42-30.62-17-31.83,10.88-8.65,11.25-9.86-5.54-22.66-7.75-26.47-14.76-20.24-17-36.5-2.21-22.67-2.77-23.53-6.64-12.81-8.48-13.84-8.86-4.67-9.78-5.54-3.32-3.81-1.48-4.84,8.31-.52,12.92,1.38,11.8,4.33,13.09,5.19,3.32-1,1.3-4.67-17.9-24.57-19.37-26.47-4.06-5-.56-8,9.23,6.57,11.26,7.61,5.35,5.54,6.82,7.1,10.88,10,12.36,11.76l2.95,3.46s-.92-11.59-2.77-14.36-13.09-23-13.65-26.12.19-5,4.06-4.67,6.64,5.71,8.86,9,10.51,15.4,12.54,17.48,3.69,3.46,4.06,5.88a30.71,30.71,0,0,0,1.11,5.19c0-.52,2.21-5.36,1.84-8s-1.66-10.55-2.21-12.63-3.32-9-3.32-10.73-2.71-8.39,5.65-6.88c4,.72,4.19,7.5,6.86,12s2.85,10.36,4.38,13.93,3,6.78,1.9,10.71-2.86,9.11-3.43,13.93-.95,14.28-.95,18.39-.57,16.25.38,26.61.95,16.25,2.48,18.39a63.26,63.26,0,0,1,8,15.54c2.86,8,5.91,16.78,5.91,16.78a9.15,9.15,0,0,1,5.9,6.25c1.14,4.82,15,31.43,17.32,35.36s6.48,13.93,8,16.25,5.52,11.07,5.9,12.85,11.43,17,14.85,20.36,15.81,12.68,15.23,12.5-2.66,4.11-3,7.14,1,6.08-.19,9.47a44.12,44.12,0,0,0-1.53,5.53s4.76,10,6.48,27.15,2.47,23,2.47,25.17.19,5.72.19,5.72,6.1,6.07,9.14,12c0,0,17.14,12.25,29.63,26.34H645.74C646.64,1116.83,647.48,1110.57,647,1107.12Z" transform="translate(-44.21 -108.77)"/><path class="cls-2" d="M226.75,1099.12c2-8.86,9.05-33.57,13.37-44.64s32.26-50.91,35.8-60.13,17.3-32.83,17.3-35.05,2.36-1.1,2-2.21,5.9-5.53,5.11-15.13-8.26-30.62-8.26-35,2.76-5.9,3.15-9.23,0-9.59.39-14,2-7,3.94-10.7,8.65-17,9-20.29,6.3-4.06,10.23,1.47l-.39,5.17a4.29,4.29,0,0,1,0,6.27l-.4,12.17s3.54-11.43,8.66-10,4.72,9.6,3.14,17.71-1.57,12.54-.39,15.86,3.54,7.38,4.33,9.23,1.18,4.79,2.36,5.9,11.4,4.79,13.37,5.53,8.65,0,8.65,0,18.1-14.75,27.93-14.75,11,4.05,11,4.05-7.86,5.54-10.62,10.33-7.08,5.17-9.83,7.75-8.26,7.38-9.44,10-9.83,10.33-15.73,11.81-13.77,9.22-14.16,12.54a16.37,16.37,0,0,1-2,5.9l2,2.58s-4.72,5.91-6.69,9.23-3.93,18.81-5.11,21.39-3.15,7.38-2.76,9.23-2,8.85-2,10.69-.79,10.33-.4,18.45.4,18.08,0,20.66,5.12,3.69,2,10.33-5.51,7.37-5.11,12.91,6.68,10,4.72,12.91-5.12,7.38-6.3,11.44-.39,10.69.79,12.54H224C224.5,1114.55,225.55,1104.51,226.75,1099.12Z" transform="translate(-44.21 -108.77)"/><path class="cls-3" d="M792.75,875.51a18.55,18.55,0,0,0-2.33-2.5s-9.16-.7-11.49-1.33l-.17,2.42a8.25,8.25,0,0,1,2.17,1.25c.75.7,1,1.41,1.58,1.64a10.2,10.2,0,0,1,3.08,1.49c.67.7,1.5.78,2.33,1.32s5,.94,6.58,1.1,4.16.46,4.16.46S793.67,876.76,792.75,875.51Z" transform="translate(-44.21 -108.77)"/><path class="cls-1" d="M877.34,1113.26c-1.8-5.92-2.25-6.76-1.8-12.26s-.91-17.75-.91-17.75l6.77-8.46s-.46-6.34-.46-10.57-7.21-14-10.36-16.91-10.82-11.41-8.57-15.21,5-9.73,2.71-19.87-19.83-8-26.14-7.19-7.21-17.75-7.21-17.75a199.65,199.65,0,0,1-5.75-33.75l-.78-5s-7.57-44.63-8.61-50.78-3.45-15.21-5.18-18.12-9.31-8.42-11.73-9.07-11.39-5.82-12.08-7.44-7.24-5.83-7.24-5.83,5.17-12,1-14.56c-2.93-1.83-7.24,4.21-10,11.33s-3.1,12-2.76,14.89-.69,8.73.35,14.24,1.38,10,4.14,12,11.73,8.74,14.84,11.33a26.63,26.63,0,0,1,5.18,6.15s2.07,27.51,4.14,43.69,4.14,46.93,7.24,57.28,3.8,12.63,3.8,14.89-4.14,4.53-5.52,7.45-49,69.9-55.9,85.76l-.12.26H878.24A26.69,26.69,0,0,0,877.34,1113.26ZM794.5,880.9c-1.58-.16-5.75-.55-6.58-1.1s-1.66-.62-2.33-1.32a10.09,10.09,0,0,0-3.08-1.49c-.58-.23-.83-.94-1.58-1.64a8.25,8.25,0,0,0-2.17-1.25l.17-2.42c2.33.63,11.49,1.33,11.49,1.33a18.55,18.55,0,0,1,2.33,2.5c.92,1.25,5.91,5.85,5.91,5.85S796.08,881.05,794.5,880.9Z" transform="translate(-44.21 -108.77)"/><path class="cls-1" d="M1055.32,1054c-1-13.64-8.53-37.17-6.52-50.34s4-19.29,1.5-30.12-2-14.58-5.52-18.35-5.52-4.7-5.52-4.7-4.51,7.53-7,7.06-1.5-46.59-3.51-58.82-2.51-66.34-5.52-72-6.52-16.94-4.52-25.88,5.52-17.88,6-22.11,8-16,10.53-19.29a111.8,111.8,0,0,0,6.52-10.83s-6.52-4.23-10.53-.47l8-15s-2-5.65-11-1.41-10,9.88-12.55,15.52-13,23.06-15,26.35-5,2.82-8.52,8.94a152,152,0,0,0-7,14.59s-6-16.94-14-15.06-6,2.82-2.51,8.47,8.53,16,9.53,20.23a45.74,45.74,0,0,0,8,15.53c3.51,4.23,8,3.29,9,11.76s-.51,52.23-1,68.23-3.51,43.76-5,51.29-2,18.82-3.52,21.64-8,8.94-10,16S964,1014,965,1030s2.5,14.11,2.5,14.11-6.52,10.82-5,17.88,3.51,6.59,2.51,8.94-8,8-10,12.71a1.3,1.3,0,0,1-.08.17q-.21,7.85-.63,15.73c2.29,3.76,4.88,8,4.22,9.5-.87,2-4,.2-4.81.59q-.4,6.18-.88,12.37h121.92C1065.54,1096.18,1056,1063.29,1055.32,1054Z" transform="translate(-44.21 -108.77)"/><path class="cls-1" d="M1203,1118.28c-2.51-.94-7-2.82-7-6.59s-1.51-13.64-3-15-2.51-4.71-4.52-7.53-6.52-10.82-9.53-15.06-12.54-12.7-12.54-12.7l-3-3.77s-11-34.35-14.55-54.11-5-48.93-5-51.28,4,0,3.51-3.77-3-4.23-2-7.53,3.51-10.35,6-12.7,8-12.23,10-15.06,5-20.23,8-24,8.53-6.59,8.53-8-5-4.71-10-1.41-12.54,11.76-12.54,11.76-5-32.94-12.54-32.94c-7.68,0-2.51,11.29-.5,16s2,15.06,2,15.06l-.5,2.82-3-2.82s-2.51-14.12-6.52-14.12-8.53,1.41-9.53,5.65c0,0-7.53-.94-9,3.76l-1.51,4.71s-5.52,0-7.52,2.82-3.52,9.88-2.51,11.76.5,13.18,1,17.88,1.51,13.65,1.51,13.65l2.51,4.7s-5,.94-3.52,4.71,4.52,2.82,4.52,2.82,2,8.94,1.5,13.65-4.51,47.52-3.51,56,.5,38.58,2.51,45.17c0,0-32.61,29.64-31.61,34.82a219,219,0,0,0,6.18,24.42h120C1204.6,1120.08,1203.84,1118.58,1203,1118.28Z" transform="translate(-44.21 -108.77)"/><path class="cls-1" d="M573.19,1121.45c-10.61-5.16-11.79-17.33-14.94-22.12s-14.94-43.14-16.51-47.93,0-15.12,0-22.12-3.14-12.54-2.75-19.92,3.93-36.5,3.93-36.5-7.47-1.47-10.61-2.58c0,0,1.18-12.17,3.93-15.12s13.76-13.27,15.33-16.59,5.11-18.8,5.11-21a17.31,17.31,0,0,1,1.18-5.17s15.33-2.58,16.9-2.95c0,0,3.54-6.26-9.82-4.05l-5.9-2.58s19.65-1.11,24-1.85,5.5-5.16,0-5.53-17.3.37-17.3.37-1.57-5.16-5.11-4.79-9.43,4.06-13.37,4.06h-11s28.3-29.13,28.7-35c0,0-2-7-9.05,1.1s-11,11.8-11,11.8,5.89-20.28,2-19.54-14.94,25.44-17.3,29.87-7.07,9.58-9.43,10.32-6.68,1.48-7.86,5.9a54.23,54.23,0,0,0-2,11.06c-.39,4.43-.79,16.59-2.36,22.86s-1.57,12.17-4.32,17.7-6.29,10.32-5.9,12.53-3.54-.73-3.54-.73-2,15.85-2.36,18.8-4.32,14-2.75,23.6-3.54,19.91-3.54,28.39,5.51,47.56,5.11,60.1c-.27,8.59-2,19.25-3.59,28.2h87.1A10.88,10.88,0,0,0,573.19,1121.45Z" transform="translate(-44.21 -108.77)"/><path class="cls-3" d="M245.62,879.83a13.19,13.19,0,0,0,3.26-1.2c.77-.25,2.15-.89,2.41-1s-.18-.73-1.38-1-12.88.24-12.88.24,3.43,2.66,4.55,3.31S244,880.08,245.62,879.83Z" transform="translate(-44.21 -108.77)"/><path class="cls-3" d="M253.52,869.2a12.67,12.67,0,0,1,2.92,1.61c.26.24,1.8.49,2.15.16a23.76,23.76,0,0,1,2.06-2c.26-.08-.6-.89-2.06-1.13s-13.32-.32-13.32-.32a6.53,6.53,0,0,0,2.67,1.13A43.94,43.94,0,0,1,253.52,869.2Z" transform="translate(-44.21 -108.77)"/><path class="cls-1" d="M242,1119.79s-2.76-15.57-4.42-19.72-2.77-43.6-5-56.06-6.09-25.43-6.09-27.5-5.54-21.28-5-24.92-2.22-10.38-2.22-11.93,1.11-14.54,1.11-14.54-.55-11.42,1.66-14-1.66-9.34-1.66-9.34-.55-17.65,6.09-20.24,10.51-9.35,14.39-10.9,12.72-10.9,15.49-16.61,1.11-7.79,4.43-9.86,4.43-7.27,10-9.35,10-5.19,11.62-7.78-.95-11.45-11.08-5.62c0,0-6,.2-8.82-.52s-12.63-1.94-14.27-2.14a26.38,26.38,0,0,1-5.12-1.64c-1.09-.4-1.85-.4-1-1.53s6.32-4.9,10.79-5.11,8.16-1.63,14.59-4.08,8.17-3.37,8.39-5.62-.33-5.52-3.71-4.09a23.72,23.72,0,0,1-8.06,1.94,56.39,56.39,0,0,0-8.17,1.43,59.74,59.74,0,0,1-5.88,1.54c-1.19.1-2.94.81-4.14.81a17.58,17.58,0,0,0-4.13.52,4.87,4.87,0,0,1-3.05-.21,14.71,14.71,0,0,1,4.13-2.76c2.4-1,2.51-2.24,3.16-2.45s8.28-.71,11.33-1.63,4.9-3.78,4.79-4.91a3.72,3.72,0,0,0-1.41-2.1s-5.69.17-8.61,0a16.48,16.48,0,0,0-7.92,1.46A89.08,89.08,0,0,1,232,834.19c-2.06.33-3.78,2.26-5.51,5.17s-6.19,14-9.12,15.34-8.09,2.58-9.47,4.36-2.41,6.78-3.1,10.66-5.34,30.19-7.75,36.33-6.71,11.79-9.47,15.82-1.2,6.46-2.06,10.66l-.86,4.2a12.48,12.48,0,0,0-2.93,5c-1,3.23-5.68,18.9-5.68,20s-2.07,1-2.24,4.19-2.93,12.6-6.71,18.9a25.19,25.19,0,0,0-3.45,15.34c.17,3.55-1.55,8.56-4.47,13.4s-5.86,16.79-7.75,28.74-4.48,15.67-9.3,25.84-7.75,11.46-6.2,24.22c0,0,3,14.56,5.83,29.61h102.9A17.49,17.49,0,0,0,242,1119.79Zm16.63-252c1.46.24,2.32,1,2.06,1.13a23.76,23.76,0,0,0-2.06,2c-.35.33-1.89.08-2.15-.16a12.67,12.67,0,0,0-2.92-1.61,43.94,43.94,0,0,0-5.58-.56,6.53,6.53,0,0,1-2.67-1.13S257.13,867.59,258.59,867.83Zm-8.68,8.86c1.2.24,1.63.89,1.38,1s-1.64.72-2.41,1a13.19,13.19,0,0,1-3.26,1.2c-1.63.25-2.92,1-4,.41s-4.55-3.31-4.55-3.31S248.71,876.45,249.91,876.69Z" transform="translate(-44.21 -108.77)"/><path class="cls-1" d="M424.11,1079.44c-2.92-3.66-2.52-7.47-.24-11.23-1.81-1.28-3-2.4-3-3,0-2.13-2.72-20-3.63-23.35l-1.35-5.1s21.27-49.24,31.23-64.95,21.27-20,26.25-20.8S486,943,489.63,936.58s7.69-10.61,7.24-13.16.91-14.86,1.36-16.55-4.07-5.52-10.41,5.94-5.89,14-5.89,14-9.5-1.27-11.31-1.27-3.17-5.1-1.81-9.34.9-10.62,4.07-14.86,8.6-14,12.22-16.56,9.51-5.94,10-7.22,4.53-4.24-.9-5.94-14.49,6.37-21.73,11A59.65,59.65,0,0,0,462,890.73s-4.53-4.24,8.6-11.88,19-12.31,12.22-16.56c0,0-12.68,4.25-17.65,8.92,0,0-7.25.42-10.87,1.69a100.74,100.74,0,0,0-12.22,6c-1.36.85-9.05,17.4-11.32,20.8s-.9,7.22,0,9.76,7.25,13.16,4.53,17-5.43,4.67-7.69,9.33-16.75,19.11-19.92,22.51-16.3,15.7-16.3,15.7-.45-4.67-2.26-5.52,0-14.85-5.88-19.52-24-14.86-41.65-13.17-49.34,1.7-54.32,1.7-16.29-.85-16.29-.85-19.92,29.72-19,35.66-.45,10.62-.91,15.29,1.36,18.25,1.81,21.65,2.72,21.65,2.27,28.44,1.81,27.17,3.62,34,5.43,11.46,9.5,16.13,6.34,8.06,10.87,14,8.14,10.19,7.24,13.16a34.67,34.67,0,0,0-1.06,7.11h150C438.83,1108.68,436.57,1094.36,424.11,1079.44Z" transform="translate(-44.21 -108.77)"/><path class="cls-1" d="M728.61,1120.59c-3-6.45-3.89-7.86-4.79-7s-17.67-27.52-37.73-48.87-33.54-42.12-37.43-52.8-3.9-24.15-10.48-34-17.67-30-18.87-29.49c0,0-6.89-17.69-10.78-17.41,0,0,1.5-4.5-5.39-2s.3,27.53,3.29,37.64c0,0-6.88-14.05-10.18-22.47,0,0-11.08-6.18-3.59,20.22s8.68,28.09,8.38,29.49.3,9.83.3,9.83l-3.29.28s-5.69-12.64-12-18.82-15.87-7.3-13.47-.56,3.89-2.25,8.08,14.61,5.69,12.91,7.49,18,11.08,11,15.57,14,14.67,5.62,22.46,14.61a203.05,203.05,0,0,1,21.26,30.89c4.79,8.71,18,28.09,22.76,43.25l.62,2h58.52C729,1121.44,728.78,1121,728.61,1120.59Z" transform="translate(-44.21 -108.77)"/><path class="cls-1" d="M943.66,1095.89c-4.8-7.27-8.86-15.92-9.23-18.34s-5.9-45.33-7-63-1.11-58.83,1.1-64,7.75-11.07,8.86-16.95,0-10.38,4.06-16.61,10.32-13.49,13.28-18.34a46,46,0,0,0,4.79-11.42c.37-1.38-4.43-5.53-12.91,3.12S937,905.93,930,906.62s-11.81,2.08-13.65,0-9.6-9.34-9.6-10.38,6.65-14.19,5.54-17-5.17-4.5-5.54-1-2.58,5.88-3.68,7.61L902,887.59s-8.12-6.57-8.12-9.69,2.22-17.3-1.1-21.11-5.17-2.42-5.17-2.42l-1.11,6.92s-1.84-16.95-11.43-13.84c-1.11.36,1.84,8.65,1.84,8.65s-3.69.35-3,2.42,2.58,6.92,2.58,11.42,2.22,7.27,3,13.5,4.8,10.72,5.54,15.57,1.1,11.76,2.58,15.22,6.64,14.54,6.27,17.65,2.22,10.38,2.59,15.22a41.24,41.24,0,0,1-.37,11.77c-.74,3.8,0,9.69,0,15.22s-2.22,34.95-3,49.14-4.06,31.48-4.06,31.48-8.49,27-10,33.91a37.39,37.39,0,0,0,2.21,21.8c.65,1.6,2.2,5.83,4.28,11.58h68.79C950.34,1110.65,946,1099.46,943.66,1095.89Z" transform="translate(-44.21 -108.77)"/><path class="cls-1" d="M1380.38,1107.12a64.5,64.5,0,0,1,1.47-8.31s6.46.87,7.93-.69,0-2.08-.73-3.29-5.17-4-4.43-6,2.21-20.94-1.11-28.2-3.32-8.65-8.3-14.36-7.56-11.77-8.48-13.15-3-3.29-4.06-5.71-2.4-4.15-4.06-7.78-.92-5-3.14-8.31-3.32-5-5.53-6.4-12-5.19-12-5.19,5.72-42.91,7.19-45.16,16.42-30.62,17-31.83-10.88-8.65-11.25-9.86,5.54-22.66,7.75-26.47,14.76-20.24,17-36.5,2.21-22.67,2.77-23.53,6.64-12.81,8.48-13.84,8.86-4.67,9.78-5.54,3.32-3.81,1.47-4.84-8.3-.52-12.91,1.38-11.8,4.33-13.1,5.19-3.32-1-1.29-4.67,17.9-24.57,19.37-26.47,4.06-5,.56-8-9.23,6.57-11.26,7.61-5.35,5.54-6.82,7.1-10.89,10-12.36,11.76l-3,3.46s.92-11.59,2.76-14.36,13.1-23,13.66-26.12-.19-5-4.06-4.67-6.64,5.71-8.86,9-10.51,15.4-12.54,17.48-3.69,3.46-4.06,5.88a30.71,30.71,0,0,1-1.11,5.19c0-.52-2.21-5.36-1.84-8s1.66-10.55,2.21-12.63,3.32-9,3.32-10.73,2.71-8.39-5.65-6.88c-4,.72-4.19,7.5-6.86,12s-2.85,10.36-4.38,13.93-3,6.78-1.9,10.71,2.86,9.11,3.43,13.93,1,14.28,1,18.39.57,16.25-.38,26.61-1,16.25-2.48,18.39a63.26,63.26,0,0,0-8,15.54c-2.86,8-5.91,16.78-5.91,16.78a9.15,9.15,0,0,0-5.9,6.25c-1.14,4.82-15,31.43-17.32,35.36s-6.48,13.93-8,16.25-5.52,11.07-5.9,12.85-11.43,17-14.85,20.36-15.81,12.68-15.24,12.5,2.67,4.11,3,7.14-1,6.08.19,9.47a42.76,42.76,0,0,1,1.52,5.53s-4.76,10-6.47,27.15-2.47,23-2.47,25.17-.19,5.72-.19,5.72-6.1,6.07-9.14,12c0,0-17.15,12.25-29.63,26.34h176.35C1380.73,1116.83,1379.89,1110.57,1380.38,1107.12Z" transform="translate(-44.21 -108.77)"/><path class="cls-1" d="M1634.42,1099.12c-2-8.86-9-33.57-13.37-44.64s-32.25-50.91-35.79-60.13S1568,961.52,1568,959.3s-2.36-1.1-2-2.21-5.9-5.53-5.11-15.13,8.26-30.62,8.26-35-2.75-5.9-3.15-9.23,0-9.59-.39-14-2-7-3.93-10.7-8.66-17-9.05-20.29-6.29-4.06-10.23,1.47l.4,5.17a4.28,4.28,0,0,0,0,6.27l.39,12.17s-3.54-11.43-8.66-10-4.71,9.6-3.14,17.71,1.57,12.54.39,15.86-3.54,7.38-4.33,9.23-1.18,4.79-2.36,5.9-11.4,4.79-13.37,5.53-8.65,0-8.65,0-18.1-14.75-27.93-14.75-11,4.05-11,4.05,7.86,5.54,10.62,10.33,7.08,5.17,9.83,7.75,8.26,7.38,9.44,10,9.83,10.33,15.73,11.81,13.77,9.22,14.16,12.54a16.37,16.37,0,0,0,2,5.9l-2,2.58s4.72,5.91,6.69,9.23,3.93,18.81,5.11,21.39,3.15,7.38,2.76,9.23,2,8.85,2,10.69.79,10.33.4,18.45-.4,18.08,0,20.66-5.12,3.69-2,10.33,5.51,7.37,5.11,12.91-6.68,10-4.72,12.91,5.12,7.38,6.3,11.44.39,10.69-.79,12.54h92.48C1636.67,1114.55,1635.62,1104.51,1634.42,1099.12Z" transform="translate(-44.21 -108.77)"/><path class="cls-1" d="M1629.89,305.17c-4-3.31-6.15-5.23-6.15-5.23C1624.37,301,1626.61,302.8,1629.89,305.17Z" transform="translate(-44.21 -108.77)"/><path class="cls-1" d="M1811.45,488.19l-.17-.06A.77.77,0,0,0,1811.45,488.19Z" transform="translate(-44.21 -108.77)"/><path class="cls-1" d="M1808.15,479.68c.55-7.49-4.77-10.93-7.52-12.65s-16.79-11.7-17.89-13.51c-.81-1.32-8.4-4.46-12.48-6.92a10.39,10.39,0,0,0,1-4.44,11.11,11.11,0,0,0-8.31-10.53,23.73,23.73,0,0,0-.18-3.4c-1.7-13.9-14.19-32.54-27.83-41.54-14.38-9.49-12.3-17.47-11.37-19.62q5.76,3,11.74,5.86c64.76,31.13,99,39.81,99,39.81l-51.15-23.48-2.72-16.33,26.66-46.45-26.66-16.33-10.89,8.67.55-13.27s-26.67-22.45-54.42-17.86c0,0-27.21,39.81-25.58,55.12,0,0-43.64-25.62-60.25-37.64A547.48,547.48,0,0,0,1719.61,365c-1.19,2.47-3.85,11.52,13.69,23.1,13.81,9.11,24.85,29.84,26.23,41.11a9.76,9.76,0,0,1,0,1.94h0c-6.49,0-11.75,4.93-11.75,11a10.79,10.79,0,0,0,5,9,20.2,20.2,0,0,0,4.22,8.27c6.88,8.26,19,18.33,25.68,25.55s2.2,12.65.19,16.43a12.53,12.53,0,0,0,4-6.62c1-4.3-.55-10.84-.82-10.84a16.44,16.44,0,0,1,3.66,14.11c-1.83,8.34.1,5.42,2.21,9,0,0-2.48-4.48-1.1-7.66s1.65-10.41.18-14.11-3.49-9-3.58-9.29,13.58,6.71,14.86,15.14,4,9.38,5.5,10.41c0,0-5.5-12-5.41-17.29s-1.1-8.09-4.49-11.27c0,0,7.7,1.29,8.62,8.34.87,6.68,3.62,6.5,4.69,6.82C1810.55,487.83,1807.67,486.22,1808.15,479.68Z" transform="translate(-44.21 -108.77)"/><path class="cls-1" d="M2705.31,494.7l-11.54-6.12-7.52-62.11s-81.27,73.4-90.81,80.93c0,0,4,48.46,13.55,76.22l22.74-23.86a61.51,61.51,0,0,0,7.36,12.53c7.95,10.16,7.33,22,5.63,29.7l-.36,0c-5.13,0-9.28,3.74-9.28,8.36a7.6,7.6,0,0,0,1,3.79c-1.11,1.9-2.28,5-2.28,10,0,9.5-1.5,15.78-5.77,20.53s-2.5,12.2-2.5,10.11c0-.15-.76-5.51,2.75-8.27a34.78,34.78,0,0,0,0,11c1,5.67.26,7.35-2,9.34,0,0,5.52-2.29,4-7.81a9.23,9.23,0,0,1,2-8.88s-.75,7.2,2.26,13,4.51,8.88,4.51,8.88-2.51-10.42-3.26-14.09a45.45,45.45,0,0,1-.75-7.81s5.52,5.51,6.27,11.64,1.25,7.81,5,10c0,0-3.27-7.82-2.51-11.34s-2.26-8.12-2.51-9.19,6,2.3,7.52,9.65l3.26,7.05s-2.25-8-2.5-11.34-2.26-6-3-7.2-.51-5.67,0-8.73,4.51-10,4.26-12.72c-.2-2.25-.24-8.06-.39-11.38a8,8,0,0,0,3.15-6.25,8.32,8.32,0,0,0-5.2-7.5c1.6-8.38-.2-20.93-14.37-43.41-.27-.44-.5-.87-.76-1.31l5.28-5.54,28.6,13.17s14-2.82,22.57-11.76,19.07-26.35,19.57-36.7S2705.31,494.7,2705.31,494.7Z" transform="translate(-44.21 -108.77)"/><path class="cls-1" d="M2229.1,519.26v-5.5l36.32-36.26L2173.19,541c-3.93-8.14-7.62-20.46-10.29-32.15-2.05-8.95,4.23-16.21,9.84-20.74a7.48,7.48,0,0,0,12-.92c3.25-1.58,3.24-9.54,4.93-11.69,1.82-2.34,4-4.67,8.12-10.26s13.42-11.51,13.42-11.51c-4.14-.31-12.92,6.07-12.59,5.44s5.14-5.13,7.79-6.06,4-1.87,3.81-4.2a29.19,29.19,0,0,0-1.16-5.44s-4.81,2.8-4.31,2.33,2.65-2.79,2.65-2.79l-3.81-2.65-.5,1.25s-3.49,4.23-5.7,7.08c1.13-2,2.48-4.52,3.05-5.68a7.24,7.24,0,0,0,.83-3.58s-3.81,6.37-6.13,9.48-5.64,3.27-10.45,8.24-2.48,8.09-1.82,12.59c.45,3.1-1.72,5.94-3.15,7.44a7.23,7.23,0,0,0-1.33-.13,7.08,7.08,0,0,0-7.29,6.84,6.57,6.57,0,0,0,.22,1.6c-2.85,1.14-6,3.5-9.05,9.07-8.57,16.47,3.22,37,10.18,46.92l-14.87,10.23-76.15,65.93,49.79-25.83c4.1,19.23,35.15,59.34,35.15,59.34l10-8.79s0-18.13.59-19.78,8.2,12.64,8.2,12.64,11.13-10.44,14.06-15.38,67.37-66.49,67.37-66.49Z" transform="translate(-44.21 -108.77)"/><path class="cls-1" d="M2689.55,221.22l-25.43,20.94s14.42-27,16.51-30.07c-4,1.12-56.84-13.86-76-6A198.4,198.4,0,0,0,2568,226.46s-71.92-36.06-75-33.15c-1,.9,3.82,42.86,8.52,82-14.68-12.26-25.43-27.64-23.71-46,1.83-19.6,1.39-30.63,0-37a9.71,9.71,0,0,0,.91-14.42c.62-5.75-2.11-14.14-4-27.21-2.14-15.21,8.87-36.16,8.87-36.16-8,3.16-14.07,38.45-15,34.15s2.14-16.07,4.59-22.38,5.2-17.22,4-17.5-11.62.57-11.62.57v7.17l-3.37-7.46s-6.42-1.14-3.67,1.72.61,13.2.61,13.2c0-8.32-8-18.65-4.89-12.91a8.53,8.53,0,0,1,.45,1c2.54,6.71,1.79,24.68-2,42.9-3.12,15.06,4.07,24.1,7.34,27.33a9.74,9.74,0,0,0-.3,2.37c0,5.63,4.86,10.19,10.86,10.19a11.32,11.32,0,0,0,5.51-1.43,16.28,16.28,0,0,1-.16,7.16c-2.75,11.2-6.12,55.1,7.34,63.42,3.7,2.28,10.35,7.36,18.46,13.36,4.06,33.73,8,64.77,8,64.77s129.59,64.55,144.47,66.87l-5-75.6s6.82-8.72,8.68-10.47,32.25-57,34.11-59.89S2689.55,221.22,2689.55,221.22Z" transform="translate(-44.21 -108.77)"/><path class="cls-1" d="M2680.63,212.09c.13,0,.21-.09.23-.17S2680.83,211.79,2680.63,212.09Z" transform="translate(-44.21 -108.77)"/><path class="cls-1" d="M2446.45,370.76a2.89,2.89,0,0,0-3.66-2s-25.48,6.87-49.69,13.32a96.93,96.93,0,0,1,11.37-20.84,4.93,4.93,0,0,0,2.3.57,4.69,4.69,0,0,0,4.84-4.53,4.26,4.26,0,0,0-.42-1.85c1.59-1.17,3.53-2.68,5.38-4.35,3.31-3-.12-6.54,1.65-8.86s3.78-3.76,5.79-6.53,4.6-5.76,7-9.63,1.18-10.08,1.18-10.08c-1.53,6.87-5.07,9.52-5.07,9.52,2-2.1,3.89-10.07,3.89-10.07l-1.77-1.66c-3.07,1.88-9.32,15.72-8.73,13.84s2.83-7.42,4.13-9a42.75,42.75,0,0,0,3.42-5.87l-3.07-2.21-2.24,3.32s1.3-3.43.83-4.21a4,4,0,0,0-1.78-1.22s.59-.77-.94,1-2.71,9.19-2.71,9.19c-1.3-4.1.47-10.63.47-10.63a20.64,20.64,0,0,0-2.24,10.63c.23,3.87-3.55,10.18-3.55,10.18-.94,3.66-2.83,8.09-3.54,10.08a11.76,11.76,0,0,0-.23,5.31c.11,1.44-.12,2.33-1.42,4.32a14.65,14.65,0,0,0-1.61,4.28,4.63,4.63,0,0,0-4.06,4.47,4.49,4.49,0,0,0,2.21,3.8,75.65,75.65,0,0,0-12.89,21.5c-17.34,4.61-33.67,8.92-39.08,10.22-13.12,3.15-19.52,6.3-19.52,6.3,4.27,33.76,19.83,91.85,19.83,91.85,3.05-2.58,30.81-8.87,32.34-8.87s7.93,1.43,9.15,1.14,2.44,1.43,18.31-1.72,22.27-13.16,22.27-13.16c4.27-1.14,32-9.16,32-9.16S2447.36,373.62,2446.45,370.76Z" transform="translate(-44.21 -108.77)"/><path class="cls-1" d="M2833.13,384.66c-3.58-.92-2.6-3.35-2.6-3.35l9.09-4s10.73,4.58,14,7.93,3.25,1.83,3.25,1.83a5.28,5.28,0,0,0-1.3-4.57c-1.95-2.44-1.95-6.1-2.59-8.84s-2.28-9.75-4.23-9.75-14.62-2.74-17.87-3.35-4.87-5.79-8.12-9.76-16.57-21.63-17.87-23.15-5.52-7.32-7.47-8.23l-27,32.18c-.86-11.49,1.06-25.34,11.78-35.84,9.74-9.54,14.11-15.93,15.9-20.73h.34c5.39,0,9.75-4.09,9.75-9.14a8.68,8.68,0,0,0-.18-1.7c1-1.08,1.94-2.28,2.92-3.61,3.52-4.78,2.61-5.61,3.13-9.93s1-6,.91-8.92a25.23,25.23,0,0,1,1.3-8.37c.78-2.57.52-4.87.91-7.45s2.09-5.33,2.74-6.71a36.1,36.1,0,0,0,1.69-4.87c.39-1.38-.52-4.23-.52-4.23s-.39,1.38-1.3,5-1.82,2.67-3,3.77a7.59,7.59,0,0,0-2.21,4.6c-.26,1.93-5.08,12.88-4.17,10.48a45.1,45.1,0,0,0,1.82-7.9c.39-2.3,2.35-5.89,3.78-8.19s2.35-7.35,1.69-8.09-5.21-.92-5.21-.92-3.12,5.79-3.12,5.33,1.82-5.42,1.82-5.42l-1.82-.19s-2.09-.18-2.48,1-.26,13.15-.26,13.15l-1,.46c-.13-.37-1.05-1.75-.13-5.71s-.92-8.55-.92-8.55a26.42,26.42,0,0,1-.13,5.61c-.39,3.59-1.82,3.77-2.21,6.44-.28,1.92.45,5.6.88,7.51a23.52,23.52,0,0,1-2.84-5.21,9.31,9.31,0,0,1,.53-8.19c-1.83,1.75-3.78,1.29-1.31,7s5.87,20.51-1.17,30.44a54.82,54.82,0,0,0-3.06,4.78,9,9,0,0,0,.44,17.38,39.6,39.6,0,0,1-9.57,14.09c-12.27,11.79-18.75,21.52-16.39,43.7l-24.23,28.83c-13.32,15.84-10.72,20.11-8.44,24.37s22.09,39.62,31.84,43.88l17.54-21.63s9.1,1.83,16.25-.61,15.27-5.49,18.84-7,11.7-4.57,15-6.09,15.92-16.15,17.86-18a8.09,8.09,0,0,1,3.58-2.14S2836.7,385.57,2833.13,384.66Z" transform="translate(-44.21 -108.77)"/><path class="cls-1" d="M2997.82,374.81c-1.88-20.56-1.26-23.5-1.26-23.5s-11-4.11-16-3.53c0,0-7.52-27.61-8.46-31.14s-2.5-5.58-3.13-1.76c0,0-27.9,12.54-51.6,23.78-17.21-17.76-10.1-28.65-5.18-33.14a3.35,3.35,0,0,0,2.61,1.23,3.17,3.17,0,0,0,3.26-3.06,1.86,1.86,0,0,0,0-.33,21.74,21.74,0,0,1,6.16-4.26c3.54-1.33,11.57-13.11,10.23-12.45a8.1,8.1,0,0,0-2.77,3.42c-.1.38-9.94,7.22-9.94,7.22a33.45,33.45,0,0,0,2.48-2.37,12,12,0,0,0,2.39-3.8c.48-1.24,3.16-3,4.78-3.9s1.53-3.71,1.53-3.71a22,22,0,0,0-3.63,2.48c-1,.85-2.3,2.18-2.87,2.75a16.39,16.39,0,0,1-2.68,1.62c1.25-1.05,1.06-1.24,3.64-4.09s4.11-3,4-3.33-1.82-2.66-1.82-2.66a10.58,10.58,0,0,0-3.15.57c-.86.48-.86,2.38-1.72,3.61s-3.92,5-3.92,5c.1-.67-.76-2.57.58-3.14s3.15-5.42,3.15-5.42-3.82,4.18-4.78,5.61-1.24,3.9-1.62,6.08a11.89,11.89,0,0,1-3.16,5.89,5.39,5.39,0,0,0-1.22,2.4,2.93,2.93,0,0,0-2,3.72c-5.88,3.37-6.53,10.61-7.06,15.33-.33,3,5.08,11.22,11.29,19.47-16.25,7.73-30.18,14.7-31.19,16.36-2.51,4.12-.63,5.29-.63,5.29l3.44,12.63s21.3,76.68,22.87,81.38c0,0,.63,2.35,5.32-.88s47-21.45,53.88-25.86,27.56-12.92,27.56-12.92l-2.5-10.28S2999.7,395.37,2997.82,374.81Z" transform="translate(-44.21 -108.77)"/><path class="cls-1" d="M2321.39,155.78c2.16-4.23,1.62-6.43,1.62-10.49s2-8.79,1.45-13.19,2-18.27,2-18.27c-1.8,1.7-3.79,5.76-4.69,8.29s-2.34,7.27-1.8,11.17-2.35,16.06-2.35,16.06c1.63-5.92,0-10.15.18-13.87s.9-12,2.35-15.22,3.24-6.26,3.24-6.26l-4.87-2.53s-3.78.17-4.68.67-1.63,4.57-1.81,6.77-3.42,11.5-3.42,11.5.72-4.23,1.62-8,2-10.32,2-10.32-3.24-1-3.06-.5-3.25,6.93-3.61,10.14-4.69,6.77-6.49,12.52.54,21.14.54,21.14c-2.35-3-4.15-15.56-4.15-15.56.18,2.37-.36,11,2.34,15.9s2,10.82.55,16.07c-.89,3.23-.89,8.12-.76,11.41a6.48,6.48,0,0,0-5.17,6.18,6.27,6.27,0,0,0,2.91,5.22c0,.05,0,.1-.07.15-3.85,7.66-20.4,24.13-37.94,36-12.6,8.51-21.89,22.85-26.76,31.21-3-13.13-13.17-60.37-14.36-63.94l-26.51,7.87,3.79,3.8,3.25,18.27s-29,3.05-31.65,3.81-8.39,4.06-10.55,4.82-18.4,10.91-16,11.67,7,3,7.57,3.8.27,9.14,2.17,13.19,3,12.69,4.05,16a77.45,77.45,0,0,0,5.41,11.16c1.09,1.78,5.14,8.37,5.68,10.91s3.52,10.4,3.25,13.45-.81,13.95,1.35,15.73,5.68.5,5.68.5l2.71,3.81s11.36-2.28,15.42-2.79,27-5.08,27-5.08,2.16,11.42,2.16,13.7-.27,6.6-.27,6.6l26.24-.51s1.35-8.62,0-13.19c-1.29-4.35-13.59-61.73-15.48-69.46a91.84,91.84,0,0,1,12.23-19.59c10.28-12.68,23.81-21.31,31.92-26.38,7.48-4.68,20-21.82,21.92-24.5a7.17,7.17,0,0,0,1.61.2,6.63,6.63,0,0,0,6.77-6c2.91-2.77,6.63-6.83,6.76-8A83.45,83.45,0,0,1,2315.8,168c1.62-4.57,19.11-21.48,19.11-21.48C2328.06,149.35,2319.23,160,2321.39,155.78Z" transform="translate(-44.21 -108.77)"/><path class="cls-1" d="M2082,490.88l9.87-23.28-91.37-27s-15.24,36.1-23.6,55.82c-10.24,2.37-19.94,7.12-25.72,16.11-12.55,19.49-24.53,38.2-31.79,47.21a8.56,8.56,0,0,0-4.2-1.1,8,8,0,0,0-8,6c-4.77,3-12.3,9.35-12.48,19.38-.25,14.35,8.28,34.11,6.27,47.75s-.75,25.41.51,28.71c0,0,1.75-19.3,2.25-24.94,0,0-.75,23.29,6.27,25.17l7-1.41s-2.26-10.12-3.77-17.18c0,0,5,12,7.28,16l7.78-2.35s2.59-4.35-.51-12.15a30.41,30.41,0,0,0-2-4.08c-6-10.35-12.55-19.76-12.8-23.76,0,0,15.81,20.93,18.06,28.7,0,0-3-17.65-9.28-26.35a36.44,36.44,0,0,1-7-19.29c0-1.89,3.26-9.65,3.26-14.12,0-2.79.39-7.58.56-11.55a7.61,7.61,0,0,0,4.71-6.92,7.42,7.42,0,0,0-2.38-5.4,15.64,15.64,0,0,0,2.13-3.18c2-4.24,33.36-48.23,40.88-52.94a37.79,37.79,0,0,1,11.18-4.22c-.91,2.15-1.69,4-2.29,5.39-5.64,13.23-16.64,39.41-16.92,40.21s15.79,6.34,24,9,64.3,21.42,64.3,21.42L2053,557s13.82-4.76,21.71-15.08,17.21-37.29,15.8-42.58Z" transform="translate(-44.21 -108.77)"/><path class="cls-1" d="M3090.85,537.57a17.73,17.73,0,0,0-3-1.89c-1.61-.76-1.61-6,.4-13.43s-6-17.6-6-17.6l-25.82-11.54,5.85-50.32-35.43,32.94c-.26-8.08,1.32-15.63,6.89-19.54,11.25-7.88,15.08-13.91,16.68-17.94a4.76,4.76,0,0,0,.65.06,4.47,4.47,0,0,0,4.61-4.33,4.16,4.16,0,0,0-1.09-2.76,54.78,54.78,0,0,0,1.09-7.67c0-1.7,2.42-5.81,4.54-9.08s2.42-5.67,3.93-9.5,2.12-5.4,1.52-8.38a9.71,9.71,0,0,1,.91-5.82c-2,1-2.73,1.14-2.88,4.12s-5.75,11.92-5.75,11.92c.15-.43,2.12-5,2.72-6.53s1.52-8.23,1.52-8.23l-4.54-.28L3057,398v-.71c0-1.56-.75-5.67-1.21-5.67s-2.12-.57-2.12.42-.15,9.37-.15,9.37-.45,2.69-.3-.57-1.51-9.65-1.51-9.65l.15,7.1c.76,4.54-3.63,13.76-5.9,21.71a16.23,16.23,0,0,0,.93,12.08,4.08,4.08,0,0,0-.48,1.89,4.31,4.31,0,0,0,2.69,3.92c-1.88,4.37-6.09,11.74-14,15-8.66,3.59-10.46,12.59-9.63,24.08l-33.18,30.86L2994,577.3s33.28-21.38,33.69-21.95c0,0,13.31,6.63,20.57,7.76s19.17-3.21,23.2-5.11,12.31-10.4,14.12-12.48a35.06,35.06,0,0,1,4.64-4.17l-2.62-1.89Z" transform="translate(-44.21 -108.77)"/><path class="cls-1" d="M1915.46,507.12c.42-4.61,6.84-6.75,6.84-6.75-4.92.06-6.24,3.15-6.24,3.15-5.58,1.13-12.36-.9-15.9-6.47s-13.86-3.94-23.82-2.64c-7.62,1-12.06,6.51-13.74,9.06a5.71,5.71,0,0,0-3.26,5.06,5.62,5.62,0,0,0,2.28,4.45c-3.56,4.45-10.22,10.51-24.36,16.84-6.09,2.73-12.71,7.52-19.12,13a21.37,21.37,0,0,0-5.9-1.43l-90.74,69.34s31.93,17.86,33.61,17.86a33.36,33.36,0,0,0,5.6-1s5,6.83,9.52,9.46,17.36,5.77,48.73-9.46,42-27.32,42-27.32-21.85-26.79-29.13-27.84l21.85-13.13s-20-10.43-32.62-15.35c1.7-1.67,3.39-3.37,4.9-5,6.53-6.83,23.33-14.12,27.85-17.65a80.76,80.76,0,0,0,8.16-8.09,6.39,6.39,0,0,0,3.5,1,6,6,0,0,0,6.07-5c1.27-1.36,4.75-5.07,5.51-5s9.6,1.18,10.38,2.08,4.68,6.42,6.42,7.2,1.86.79,7.62,1.47a30.3,30.3,0,0,1,11.22,4.22c-.48-1.8-7.86-4.33-7.86-4.33,1.44.22,7.74,2,9,2.08s5.4-.34,6.48-2.93a23.34,23.34,0,0,0,1.38-5.85l-3.57,1.4c.63-.25,3.06-1.34,3.69-3.2.72-2.14-1.14-3.94-1.14-3.94C1918.46,502.73,1915.46,507.12,1915.46,507.12Z" transform="translate(-44.21 -108.77)"/><path class="cls-1" d="M3305.09,474.72s-83.61-47.43-92.23-47.43l-5.45,21a49.93,49.93,0,0,0-8.91,2.53,167.74,167.74,0,0,1-16,5.78,5.15,5.15,0,0,0-3.78-1.63,5,5,0,0,0-4.95,3.78,9,9,0,0,1-5.16-3.58c-4.21-5.73.42-14.42,7.58-21.33,0,0,8.85-7.9,10.53-16.19,0,0-9.69,14.81-14.53,18.56,0,0-12,10.66-4.63,20.14,0,0-10.74-8.89-1.05-30.41,0,0,1.26-13.82,0-16.59,0,0-10.11,7.11-12.85,10.86,0,0,3.37,11.06,2.53,17.18,0,0-4-15.4-5-16s-3,.79-3,.79-1.68,6.91-1.68,7.9,8,17,10.73,22.31c1.91,3.71,2.89,5.5,4,6.19-3.11-.83-9.73-4-14.48-16.26,0,0-4-7.11-4-13.63,0,0-5.9,4.74-4.64,8.89,0,0,1.9,9.28,6.74,13.43,0,0-9-8.49-16-7.7,0,0,7.79,4.34,12.42,8.88,0,0-12.84-6.32-17.89-5.92l-1.69,3.16a27,27,0,0,1,8.84,5.53c3.79,3.75,6.53,11.06,13.9,11.65s17.27.39,23-2.37a32.31,32.31,0,0,1,7-2.18,5.07,5.07,0,0,0,4.35,2.38,4.91,4.91,0,0,0,5.05-4.74,4.51,4.51,0,0,0-.8-2.55,70.44,70.44,0,0,1,7.54-2.19c2.53-.4,6.53-2.37,12.84-3,1.22-.12,2.26-.2,3.17-.26l-3.7,14.3,3.16,2.16s-17.82,16.71-18.1,19.4S3189.3,493,3191,493s29.3,19.4,34.76,22.91,24.13,13.74,25.28,13.74,10.63-1.89,10.63-1.89l13.22-20.48s19.83,11.32,21.55,11.86,3.16-5.66,3.45-8.89,6-17.25,7.18-18.87,4.88-12.12,4.88-13.74S3305.09,474.72,3305.09,474.72Z" transform="translate(-44.21 -108.77)"/><path class="cls-1" d="M2041.3,229.49l2.51-9.41s-26.59-20.23-47.66-24a263.49,263.49,0,0,1-37.13-9.41s-18.63,49.66-31.73,90.67l-.38.07c-30.88,5.39-51.34,9.37-61.57,15.22a9.8,9.8,0,0,0-5.56-1.7,9.67,9.67,0,0,0-7.81,3.84c-5.44,1.21-28.29,8.16-11.17,37.36,19.33,33,29.87,24.06,44.28,20.11s20.39,2,22.5,4.28c0,0-3.87-11.53-24.6-6.92,0,0,15.81-5.27,20.73-7.91,4.5-2.41,14.27,1.24,17,3.65-2.88-3-16-15.47-29.64-6.95-1.06.66-9.49-2.3-13-3,0,0,18.28-3.63,25-4.29s4.92-8.24,4.22-12.19c0,0-2.46,10.54-14.77,11.53s-11.59-1.64-13.35-3.29-6.33-2-10.9-3.3-9.84-4.28-8.08-7.58c1.56-2.92,8-6.09,6.6-10.44a8.44,8.44,0,0,0,.5-11.54,63.15,63.15,0,0,1,12.58-5.05c9.88-2.83,32.59-8.47,47.27-11.28-7.75,24.31-13.51,45.47-12.21,51.24,0,0,32.11,19.29,37.63,22.58s62.71,18.83,62.71,18.83l7.52-36.71s26.59-4.7,32.61-10.82,30.61-48.46,34.12-57.87l3.51-9.41Z" transform="translate(-44.21 -108.77)"/><path class="cls-1" d="M1920.7,345.34c.38.39.58.64.58.64A3,3,0,0,0,1920.7,345.34Z" transform="translate(-44.21 -108.77)"/><path class="cls-2" d="M2445.72,875.51a18.55,18.55,0,0,1,2.33-2.5s9.16-.7,11.49-1.33l.17,2.42a8.25,8.25,0,0,0-2.17,1.25c-.75.7-1,1.41-1.58,1.64a10.2,10.2,0,0,0-3.08,1.49c-.67.7-1.5.78-2.33,1.32s-5,.94-6.58,1.1-4.16.46-4.16.46S2444.8,876.76,2445.72,875.51Z" transform="translate(-44.21 -108.77)"/><path class="cls-2" d="M2360.23,1122h131.83c0-.09-.08-.17-.11-.26-6.91-15.86-54.53-82.85-55.91-85.76s-5.52-5.18-5.52-7.45.69-4.53,3.8-14.89,5.17-41.1,7.24-57.28,4.15-43.69,4.15-43.69a26.44,26.44,0,0,1,5.17-6.15c3.11-2.59,12.08-9.39,14.84-11.33s3.11-6.47,4.14-12,0-11.33.35-14.24,0-7.77-2.76-14.89-7.08-13.16-10-11.33c-4.14,2.59,1,14.56,1,14.56s-6.55,4.21-7.24,5.83-9.67,6.8-12.08,7.44-10,6.15-11.73,9.07-4.15,12-5.18,18.12-8.61,50.78-8.61,50.78l-.78,5a200.5,200.5,0,0,1-5.74,33.75s-.91,18.6-7.22,17.75-23.88-3-26.14,7.19.45,16.06,2.71,19.87-5.41,12.25-8.57,15.21-10.36,12.69-10.36,16.91-.46,10.57-.46,10.57l6.77,8.46s-1.36,12.25-.91,17.75,0,6.34-1.8,12.26A26.69,26.69,0,0,0,2360.23,1122Zm79.58-240.64s5-4.6,5.91-5.85a18.55,18.55,0,0,1,2.33-2.5s9.16-.7,11.49-1.33l.17,2.42a8.25,8.25,0,0,0-2.17,1.25c-.75.7-1,1.41-1.58,1.64a10.09,10.09,0,0,0-3.08,1.49c-.67.7-1.5.78-2.33,1.32s-5,.94-6.58,1.1S2439.81,881.36,2439.81,881.36Z" transform="translate(-44.21 -108.77)"/><path class="cls-2" d="M1631.47,1054c1-13.64,8.53-37.17,6.53-50.34s-4-19.29-1.51-30.12,2-14.58,5.52-18.35,5.52-4.7,5.52-4.7,4.51,7.53,7,7.06,1.51-46.59,3.51-58.82,2.51-66.34,5.52-72,6.52-16.94,4.52-25.88-5.52-17.88-6-22.11-8-16-10.54-19.29a111.8,111.8,0,0,1-6.52-10.83s6.52-4.23,10.54-.47l-8-15s2-5.65,11-1.41,10,9.88,12.54,15.52,13,23.06,15.05,26.35,5,2.82,8.53,8.94a153.42,153.42,0,0,1,7,14.59s6-16.94,14-15.06,6,2.82,2.51,8.47-8.53,16-9.53,20.23a46.1,46.1,0,0,1-8,15.53c-3.51,4.23-8,3.29-9,11.76s.5,52.23,1,68.23,3.51,43.76,5,51.29,2,18.82,3.51,21.64,8,8.94,10,16,11.54,18.82,10.54,34.82-2.51,14.11-2.51,14.11,6.52,10.82,5,17.88-3.51,6.59-2.51,8.94,8,8,10,12.71a1.3,1.3,0,0,1,.08.17q.22,7.85.63,15.73c-2.28,3.76-4.88,8-4.22,9.5.87,2,4,.2,4.82.59.26,4.12.56,8.24.87,12.37H1612.07C1621.26,1096.18,1630.79,1063.29,1631.47,1054Z" transform="translate(-44.21 -108.77)"/><path class="cls-2" d="M2078.74,1118.28c2.51-.94,7-2.82,7-6.59s1.5-13.64,3-15,2.51-4.71,4.51-7.53,6.52-10.82,9.53-15.06,12.55-12.7,12.55-12.7l3-3.77s11-34.35,14.54-54.11,5-48.93,5-51.28-4,0-3.51-3.77,3-4.23,2-7.53-3.52-10.35-6-12.7-8-12.23-10-15.06-5-20.23-8-24-8.53-6.59-8.53-8,5-4.71,10-1.41,12.54,11.76,12.54,11.76,5-32.94,12.55-32.94,2.5,11.29.5,16-2,15.06-2,15.06l.5,2.82,3-2.82s2.51-14.12,6.52-14.12,8.53,1.41,9.54,5.65c0,0,7.52-.94,9,3.76l1.5,4.71s5.52,0,7.53,2.82,3.51,9.88,2.5,11.76-.5,13.18-1,17.88-1.5,13.65-1.5,13.65l-2.51,4.7s5,.94,3.51,4.71-4.52,2.82-4.52,2.82-2,8.94-1.5,13.65,4.51,47.52,3.51,56-.5,38.58-2.51,45.17c0,0,32.61,29.64,31.61,34.82a220.79,220.79,0,0,1-6.17,24.42h-120C2077.17,1120.08,2077.93,1118.58,2078.74,1118.28Z" transform="translate(-44.21 -108.77)"/><path class="cls-2" d="M2938,1121.45c10.61-5.16,11.79-17.33,14.94-22.12s14.94-43.14,16.51-47.93,0-15.12,0-22.12,3.14-12.54,2.75-19.92-3.93-36.5-3.93-36.5,7.47-1.47,10.61-2.58c0,0-1.18-12.17-3.93-15.12s-13.76-13.27-15.33-16.59-5.11-18.8-5.11-21a17.31,17.31,0,0,0-1.18-5.17s-15.33-2.58-16.91-2.95c0,0-3.53-6.26,9.83-4.05l5.9-2.58s-19.66-1.11-24-1.85-5.5-5.16,0-5.53,17.3.37,17.3.37,1.57-5.16,5.11-4.79,9.43,4.06,13.36,4.06h11s-28.3-29.13-28.7-35c0,0,2-7,9,1.1s11,11.8,11,11.8-5.89-20.28-2-19.54,14.94,25.44,17.29,29.87,7.08,9.58,9.44,10.32,6.68,1.48,7.86,5.9a54.92,54.92,0,0,1,2,11.06c.39,4.43.78,16.59,2.36,22.86s1.57,12.17,4.32,17.7,6.29,10.32,5.9,12.53,3.54-.73,3.54-.73,2,15.85,2.35,18.8,4.33,14,2.76,23.6,3.54,19.91,3.54,28.39-5.51,47.56-5.12,60.1c.27,8.59,2,19.25,3.6,28.2h-87.1A10.88,10.88,0,0,1,2938,1121.45Z" transform="translate(-44.21 -108.77)"/><path class="cls-2" d="M3035.08,879.83a13.3,13.3,0,0,1-3.27-1.2c-.77-.25-2.14-.89-2.4-1s.17-.73,1.37-1,12.89.24,12.89.24-3.44,2.66-4.56,3.31S3036.71,880.08,3035.08,879.83Z" transform="translate(-44.21 -108.77)"/><path class="cls-2" d="M3027.17,869.2a12.89,12.89,0,0,0-2.92,1.61c-.25.24-1.8.49-2.14.16a27,27,0,0,0-2.06-2c-.26-.08.6-.89,2.06-1.13s13.31-.32,13.31-.32a6.49,6.49,0,0,1-2.66,1.13A44.1,44.1,0,0,0,3027.17,869.2Z" transform="translate(-44.21 -108.77)"/><path class="cls-2" d="M3036.07,1122H3139c2.79-15,5.82-29.61,5.82-29.61,1.55-12.76-1.38-14.05-6.2-24.22s-7.4-13.89-9.29-25.84-4.82-23.9-7.75-28.74-4.65-9.85-4.48-13.4a25.16,25.16,0,0,0-3.44-15.34c-3.79-6.3-6.54-15.67-6.72-18.9s-2.23-3.06-2.23-4.19-4.65-16.8-5.69-20a12.54,12.54,0,0,0-2.92-5l-.86-4.2c-.86-4.2.69-6.62-2.07-10.66s-7.06-9.69-9.47-15.82-7.06-32.46-7.75-36.33-1.72-8.88-3.1-10.66-6.54-3.07-9.46-4.36-7.41-12.43-9.13-15.34-3.44-4.84-5.51-5.17a88.54,88.54,0,0,1-12.22-3.87,16.52,16.52,0,0,0-7.92-1.46c-2.93.17-8.61,0-8.61,0a3.77,3.77,0,0,0-1.42,2.1c-.11,1.13,1.74,4,4.79,4.91s10.68,1.43,11.33,1.63.76,1.43,3.16,2.45a14.67,14.67,0,0,1,4.14,2.76,4.89,4.89,0,0,1-3.05.21,17.6,17.6,0,0,0-4.14-.52c-1.2,0-2.94-.71-4.14-.81a59.74,59.74,0,0,1-5.88-1.54,55.93,55.93,0,0,0-8.17-1.43,23.77,23.77,0,0,1-8.06-1.94c-3.38-1.43-3.92,1.84-3.7,4.09s2,3.17,8.38,5.62,10.13,3.88,14.6,4.08,9.91,4,10.78,5.11.11,1.13-1,1.53a26.16,26.16,0,0,1-5.12,1.64c-1.63.2-11.43,1.43-14.27,2.14s-8.82.52-8.82.52c-10.13-5.83-12.74,3-11.08,5.62s6.09,5.71,11.62,7.78,6.65,7.27,10,9.35,1.66,4.15,4.42,9.86,11.62,15.05,15.5,16.61,7.75,8.3,14.39,10.9,6.08,20.24,6.08,20.24-3.87,6.74-1.66,9.34,1.66,14,1.66,14,1.11,13,1.11,14.54-2.77,8.3-2.21,11.93-5,22.84-5,24.92-3.88,15-6.09,27.5-3.32,51.91-5,56.06-4.43,19.72-4.43,19.72A18,18,0,0,0,3036.07,1122Zm-.65-254.49a6.49,6.49,0,0,1-2.66,1.13,44.1,44.1,0,0,0-5.59.56,12.89,12.89,0,0,0-2.92,1.61c-.25.24-1.8.49-2.14.16a27,27,0,0,0-2.06-2c-.26-.08.6-.89,2.06-1.13S3035.42,867.51,3035.42,867.51Zm8.25,9.42s-3.44,2.66-4.56,3.31-2.4-.16-4-.41a13.3,13.3,0,0,1-3.27-1.2c-.77-.25-2.14-.89-2.4-1s.17-.73,1.37-1S3043.67,876.93,3043.67,876.93Z" transform="translate(-44.21 -108.77)"/><path class="cls-2" d="M2791.42,1079.44c2.92-3.66,2.52-7.47.24-11.23,1.81-1.28,3-2.4,3-3,0-2.13,2.72-20,3.62-23.35l1.36-5.1s-21.27-49.24-31.23-64.95-21.27-20-26.25-20.8-12.68-8.07-16.3-14.44-7.69-10.61-7.24-13.16-.91-14.86-1.36-16.55,4.07-5.52,10.41,5.94,5.89,14,5.89,14,9.5-1.27,11.31-1.27,3.17-5.1,1.81-9.34-.9-10.62-4.07-14.86-8.6-14-12.22-16.56-9.51-5.94-10-7.22-4.53-4.24.9-5.94,14.49,6.37,21.73,11a59.65,59.65,0,0,1,10.41,8.06s4.53-4.24-8.6-11.88-19-12.31-12.22-16.56c0,0,12.68,4.25,17.65,8.92,0,0,7.25.42,10.87,1.69a100.74,100.74,0,0,1,12.22,6c1.36.85,9.05,17.4,11.31,20.8s.91,7.22,0,9.76-7.24,13.16-4.52,17,5.43,4.67,7.69,9.33,16.75,19.11,19.92,22.51,16.3,15.7,16.3,15.7.45-4.67,2.26-5.52,0-14.85,5.88-19.52,24-14.86,41.65-13.17,49.34,1.7,54.31,1.7,16.3-.85,16.3-.85,19.92,29.72,19,35.66.45,10.62.91,15.29-1.36,18.25-1.81,21.65-2.72,21.65-2.27,28.44-1.81,27.17-3.62,34-5.43,11.46-9.5,16.13-6.34,8.06-10.87,14-8.15,10.19-7.24,13.16a34.67,34.67,0,0,1,1.06,7.11h-150C2776.7,1108.68,2779,1094.36,2791.42,1079.44Z" transform="translate(-44.21 -108.77)"/><path class="cls-2" d="M3167.26,1120.59c3-6.45,3.89-7.86,4.79-7s17.67-27.52,37.73-48.87,33.54-42.12,37.44-52.8,3.89-24.15,10.48-34,17.66-30,18.86-29.49c0,0,6.89-17.69,10.78-17.41,0,0-1.49-4.5,5.39-2s-.3,27.53-3.29,37.64c0,0,6.89-14.05,10.18-22.47,0,0,11.08-6.18,3.59,20.22s-8.68,28.09-8.38,29.49-.3,9.83-.3,9.83l3.29.28s5.69-12.64,12-18.82,15.87-7.3,13.48-.56-3.9-2.25-8.09,14.61-5.69,12.91-7.48,18-11.08,11-15.58,14-14.67,5.62-22.45,14.61a202.43,202.43,0,0,0-21.27,30.89c-4.79,8.71-18,28.09-22.75,43.25l-.62,2h-58.53C3166.83,1121.44,3167.09,1121,3167.26,1120.59Z" transform="translate(-44.21 -108.77)"/><path class="cls-2" d="M2581.1,1095.89c4.8-7.27,8.85-15.92,9.22-18.34s5.91-45.33,7-63,1.11-58.83-1.1-64-7.75-11.07-8.86-16.95,0-10.38-4.06-16.61S2573,903.51,2570,898.66a46,46,0,0,1-4.79-11.42c-.37-1.38,4.42-5.53,12.91,3.12s9.59,15.57,16.6,16.26,11.81,2.08,13.65,0,9.59-9.34,9.59-10.38-6.64-14.19-5.53-17,5.16-4.5,5.53-1,2.59,5.88,3.69,7.61l1.11,1.73s8.12-6.57,8.12-9.69-2.22-17.3,1.1-21.11,5.17-2.42,5.17-2.42l1.1,6.92s1.85-16.95,11.44-13.84c1.1.36-1.84,8.65-1.84,8.65s3.69.35,2.95,2.42-2.58,6.92-2.58,11.42-2.22,7.27-3,13.5-4.79,10.72-5.53,15.57-1.11,11.76-2.58,15.22-6.64,14.54-6.27,17.65-2.22,10.38-2.59,15.22a40.52,40.52,0,0,0,.37,11.77c.74,3.8,0,9.69,0,15.22s2.22,34.95,2.95,49.14,4.06,31.48,4.06,31.48,8.49,27,10,33.91a37.39,37.39,0,0,1-2.21,21.8c-.65,1.6-2.2,5.83-4.28,11.58h-68.79C2574.42,1110.65,2578.74,1099.46,2581.1,1095.89Z" transform="translate(-44.21 -108.77)"/><path class="cls-2" d="M2214.86,1107.12a62.53,62.53,0,0,0-1.48-8.31s-6.45.87-7.93-.69,0-2.08.74-3.29,5.16-4,4.42-6-2.21-20.94,1.11-28.2,3.32-8.65,8.3-14.36,7.57-11.77,8.49-13.15,2.95-3.29,4.06-5.71,2.39-4.15,4-7.78.93-5,3.14-8.31,3.32-5,5.53-6.4,12-5.19,12-5.19-5.71-42.91-7.19-45.16-16.42-30.62-17-31.83,10.88-8.65,11.25-9.86-5.53-22.66-7.75-26.47-14.75-20.24-17-36.5-2.21-22.67-2.76-23.53-6.64-12.81-8.49-13.84-8.85-4.67-9.78-5.54-3.32-3.81-1.47-4.84,8.3-.52,12.91,1.38,11.81,4.33,13.1,5.19,3.32-1,1.29-4.67-17.89-24.57-19.37-26.47-4.06-5-.55-8,9.22,6.57,11.25,7.61,5.35,5.54,6.83,7.1,10.88,10,12.35,11.76l3,3.46s-.93-11.59-2.77-14.36-13.1-23-13.65-26.12.18-5,4.06-4.67,6.64,5.71,8.85,9,10.52,15.4,12.54,17.48,3.69,3.46,4.06,5.88a30.71,30.71,0,0,0,1.11,5.19c0-.52,2.21-5.36,1.84-8s-1.66-10.55-2.21-12.63-3.32-9-3.32-10.73-2.71-8.39,5.66-6.88c4,.72,4.19,7.5,6.85,12s2.86,10.36,4.38,13.93,3,6.78,1.9,10.71-2.85,9.11-3.42,13.93-1,14.28-1,18.39-.58,16.25.38,26.61.95,16.25,2.47,18.39a63.53,63.53,0,0,1,8,15.54c2.85,8,5.9,16.78,5.9,16.78a9.15,9.15,0,0,1,5.9,6.25c1.14,4.82,15,31.43,17.33,35.36s6.47,13.93,8,16.25,5.53,11.07,5.91,12.85,11.42,17,14.85,20.36,15.8,12.68,15.23,12.5-2.67,4.11-3,7.14.95,6.08-.19,9.47a42.76,42.76,0,0,0-1.52,5.53s4.76,10,6.47,27.15,2.48,23,2.48,25.17.19,5.72.19,5.72,6.09,6.07,9.14,12c0,0,17.14,12.25,29.62,26.34H2213.6C2214.5,1116.83,2215.34,1110.57,2214.86,1107.12Z" transform="translate(-44.21 -108.77)"/><path class="cls-2" d="M1794.61,1099.12c2-8.86,9.05-33.57,13.38-44.64s32.25-50.91,35.79-60.13,17.31-32.83,17.31-35.05,2.36-1.1,2-2.21,5.9-5.53,5.12-15.13-8.26-30.62-8.26-35,2.75-5.9,3.14-9.23,0-9.59.4-14,2-7,3.93-10.7,8.65-17,9-20.29,6.29-4.06,10.22,1.47l-.39,5.17a4.28,4.28,0,0,1,0,6.27l-.39,12.17s3.54-11.43,8.65-10,4.72,9.6,3.15,17.71-1.58,12.54-.4,15.86,3.54,7.38,4.33,9.23,1.18,4.79,2.36,5.9,11.41,4.79,13.37,5.53,8.66,0,8.66,0,18.09-14.75,27.92-14.75,11,4.05,11,4.05-7.87,5.54-10.62,10.33-7.08,5.17-9.84,7.75-8.26,7.38-9.44,10-9.83,10.33-15.73,11.81-13.77,9.22-14.16,12.54a16.15,16.15,0,0,1-2,5.9l2,2.58s-4.72,5.91-6.69,9.23-3.93,18.81-5.11,21.39-3.15,7.38-2.75,9.23-2,8.85-2,10.69-.79,10.33-.39,18.45.39,18.08,0,20.66,5.11,3.69,2,10.33-5.5,7.37-5.11,12.91,6.69,10,4.72,12.91-5.11,7.38-6.29,11.44-.4,10.69.78,12.54h-92.48C1792.36,1114.55,1793.42,1104.51,1794.61,1099.12Z" transform="translate(-44.21 -108.77)"/><path class="cls-3" d="M2360.62,875.51a19,19,0,0,0-2.34-2.5s-9.15-.7-11.49-1.33l-.16,2.42a8.26,8.26,0,0,1,2.16,1.25c.75.7,1,1.41,1.59,1.64a10.2,10.2,0,0,1,3.08,1.49c.66.7,1.49.78,2.33,1.32s5,.94,6.57,1.1,4.17.46,4.17.46S2361.53,876.76,2360.62,875.51Z" transform="translate(-44.21 -108.77)"/><path class="cls-1" d="M2445.2,1113.26c-1.8-5.92-2.25-6.76-1.8-12.26s-.9-17.75-.9-17.75l6.76-8.46s-.45-6.34-.45-10.57-7.21-14-10.37-16.91-10.82-11.41-8.56-15.21,5-9.73,2.7-19.87-19.83-8-26.14-7.19-7.21-17.75-7.21-17.75a200.5,200.5,0,0,1-5.74-33.75l-.79-5s-7.57-44.63-8.61-50.78-3.45-15.21-5.17-18.12-9.32-8.42-11.73-9.07-11.39-5.82-12.08-7.44-7.25-5.83-7.25-5.83,5.18-12,1-14.56c-2.93-1.83-7.25,4.21-10,11.33s-3.11,12-2.76,14.89-.69,8.73.34,14.24,1.38,10,4.14,12,11.74,8.74,14.84,11.33a26.33,26.33,0,0,1,5.18,6.15s2.07,27.51,4.14,43.69,4.14,46.93,7.25,57.28,3.79,12.63,3.79,14.89-4.14,4.53-5.52,7.45-49,69.9-55.9,85.76l-.12.26h131.84A26.43,26.43,0,0,0,2445.2,1113.26ZM2362.36,880.9c-1.58-.16-5.74-.55-6.57-1.1s-1.67-.62-2.33-1.32a10.2,10.2,0,0,0-3.08-1.49c-.59-.23-.84-.94-1.59-1.64a8.26,8.26,0,0,0-2.16-1.25l.17-2.42c2.33.63,11.48,1.33,11.48,1.33a19,19,0,0,1,2.34,2.5c.91,1.25,5.91,5.85,5.91,5.85S2364,881.05,2362.36,880.9Z" transform="translate(-44.21 -108.77)"/><path class="cls-1" d="M2623.18,1054c-1-13.64-8.53-37.17-6.52-50.34s4-19.29,1.51-30.12-2-14.58-5.52-18.35-5.52-4.7-5.52-4.7-4.52,7.53-7,7.06-1.5-46.59-3.51-58.82-2.51-66.34-5.52-72-6.52-16.94-4.51-25.88,5.52-17.88,6-22.11,8-16,10.53-19.29a112.6,112.6,0,0,0,6.53-10.83s-6.53-4.23-10.54-.47l8-15s-2-5.65-11-1.41-10,9.88-12.54,15.52-13,23.06-15.05,26.35-5,2.82-8.53,8.94a153.42,153.42,0,0,0-7,14.59s-6-16.94-14-15.06-6,2.82-2.51,8.47,8.53,16,9.53,20.23a46.1,46.1,0,0,0,8,15.53c3.51,4.23,8,3.29,9,11.76s-.5,52.23-1,68.23-3.51,43.76-5,51.29-2,18.82-3.51,21.64-8,8.94-10,16-11.54,18.82-10.54,34.82,2.51,14.11,2.51,14.11-6.52,10.82-5,17.88,3.51,6.59,2.51,8.94-8,8-10,12.71l-.09.17q-.21,7.85-.62,15.73c2.28,3.76,4.88,8,4.22,9.5-.87,2-4,.2-4.82.59q-.4,6.18-.88,12.37h121.92C2633.4,1096.18,2623.87,1063.29,2623.18,1054Z" transform="translate(-44.21 -108.77)"/><path class="cls-1" d="M2770.89,1118.28c-2.5-.94-7-2.82-7-6.59s-1.5-13.64-3-15-2.51-4.71-4.51-7.53-6.53-10.82-9.54-15.06-12.54-12.7-12.54-12.7l-3-3.77s-11-34.35-14.55-54.11-5-48.93-5-51.28,4,0,3.51-3.77-3-4.23-2-7.53,3.51-10.35,6-12.7,8-12.23,10-15.06,5-20.23,8-24,8.53-6.59,8.53-8-5-4.71-10-1.41-12.55,11.76-12.55,11.76-5-32.94-12.54-32.94-2.51,11.29-.5,16,2,15.06,2,15.06l-.5,2.82-3-2.82s-2.51-14.12-6.53-14.12-8.53,1.41-9.53,5.65c0,0-7.52-.94-9,3.76l-1.5,4.71s-5.52,0-7.53,2.82-3.51,9.88-2.51,11.76.5,13.18,1,17.88,1.5,13.65,1.5,13.65l2.51,4.7s-5,.94-3.51,4.71,4.51,2.82,4.51,2.82,2,8.94,1.51,13.65-4.52,47.52-3.51,56,.5,38.58,2.5,45.17c0,0-32.6,29.64-31.6,34.82a218.54,218.54,0,0,0,6.17,24.42h120C2772.46,1120.08,2771.71,1118.58,2770.89,1118.28Z" transform="translate(-44.21 -108.77)"/><path class="cls-1" d="M2141.06,1121.45c-10.62-5.16-11.8-17.33-14.94-22.12s-14.94-43.14-16.51-47.93,0-15.12,0-22.12-3.15-12.54-2.76-19.92,3.93-36.5,3.93-36.5-7.46-1.47-10.61-2.58c0,0,1.18-12.17,3.93-15.12s13.76-13.27,15.33-16.59,5.11-18.8,5.11-21a17.31,17.31,0,0,1,1.18-5.17s15.34-2.58,16.91-2.95c0,0,3.54-6.26-9.83-4.05l-5.9-2.58s19.66-1.11,24-1.85,5.51-5.16,0-5.53-17.29.37-17.29.37-1.58-5.16-5.11-4.79-9.44,4.06-13.37,4.06h-11s28.31-29.13,28.7-35c0,0-2-7-9,1.1s-11,11.8-11,11.8,5.9-20.28,2-19.54-14.94,25.44-17.3,29.87-7.08,9.58-9.44,10.32-6.68,1.48-7.86,5.9a54.92,54.92,0,0,0-2,11.06c-.39,4.43-.78,16.59-2.35,22.86s-1.58,12.17-4.33,17.7-6.29,10.32-5.89,12.53-3.54-.73-3.54-.73-2,15.85-2.36,18.8-4.33,14-2.75,23.6-3.54,19.91-3.54,28.39,5.5,47.56,5.11,60.1c-.27,8.59-2,19.25-3.59,28.2H2142C2141.67,1121.79,2141.35,1121.6,2141.06,1121.45Z" transform="translate(-44.21 -108.77)"/><path class="cls-3" d="M1813.48,879.83a13.46,13.46,0,0,0,3.27-1.2c.77-.25,2.14-.89,2.4-1s-.17-.73-1.37-1-12.89.24-12.89.24,3.44,2.66,4.56,3.31S1811.85,880.08,1813.48,879.83Z" transform="translate(-44.21 -108.77)"/><path class="cls-3" d="M1821.38,869.2a12.46,12.46,0,0,1,2.92,1.61c.26.24,1.81.49,2.15.16a23.76,23.76,0,0,1,2.06-2c.26-.08-.6-.89-2.06-1.13s-13.31-.32-13.31-.32a6.49,6.49,0,0,0,2.66,1.13A43.94,43.94,0,0,1,1821.38,869.2Z" transform="translate(-44.21 -108.77)"/><path class="cls-1" d="M1809.83,1119.79s-2.77-15.57-4.43-19.72-2.77-43.6-5-56.06-6.09-25.43-6.09-27.5-5.53-21.28-5-24.92-2.21-10.38-2.21-11.93,1.1-14.54,1.1-14.54-.55-11.42,1.67-14-1.67-9.34-1.67-9.34-.55-17.65,6.09-20.24,10.52-9.35,14.39-10.9,12.73-10.9,15.5-16.61,1.1-7.79,4.42-9.86,4.43-7.27,10-9.35,10-5.19,11.63-7.78-1-11.45-11.08-5.62c0,0-6,.2-8.83-.52s-12.63-1.94-14.26-2.14a26.16,26.16,0,0,1-5.12-1.64c-1.09-.4-1.86-.4-1-1.53s6.31-4.9,10.78-5.11,8.17-1.63,14.6-4.08,8.16-3.37,8.38-5.62-.32-5.52-3.7-4.09a23.82,23.82,0,0,1-8.06,1.94,55.93,55.93,0,0,0-8.17,1.43,59.74,59.74,0,0,1-5.88,1.54c-1.2.1-2.94.81-4.14.81a17.6,17.6,0,0,0-4.14.52,4.89,4.89,0,0,1-3.05-.21,14.67,14.67,0,0,1,4.14-2.76c2.39-1,2.5-2.24,3.16-2.45s8.28-.71,11.33-1.63,4.9-3.78,4.79-4.91a3.77,3.77,0,0,0-1.42-2.1s-5.68.17-8.61,0a16.48,16.48,0,0,0-7.92,1.46,89,89,0,0,1-12.22,3.87c-2.07.33-3.79,2.26-5.51,5.17s-6.2,14-9.13,15.34-8.09,2.58-9.47,4.36-2.41,6.78-3.1,10.66-5.33,30.19-7.74,36.33-6.72,11.79-9.47,15.82-1.21,6.46-2.07,10.66l-.86,4.2a12.62,12.62,0,0,0-2.93,5c-1,3.23-5.68,18.9-5.68,20s-2.06,1-2.24,4.19-2.92,12.6-6.71,18.9a25.09,25.09,0,0,0-3.44,15.34c.17,3.55-1.55,8.56-4.48,13.4s-5.85,16.79-7.75,28.74-4.47,15.67-9.29,25.84-7.75,11.46-6.2,24.22c0,0,3,14.56,5.82,29.61h102.91A18,18,0,0,0,1809.83,1119.79Zm16.62-252c1.46.24,2.32,1,2.06,1.13a25.28,25.28,0,0,0-2.06,2c-.34.33-1.89.08-2.15-.16a12.46,12.46,0,0,0-2.92-1.61,43.94,43.94,0,0,0-5.58-.56,6.49,6.49,0,0,1-2.66-1.13S1825,867.59,1826.45,867.83Zm-8.67,8.86c1.2.24,1.63.89,1.37,1s-1.63.72-2.4,1a13.46,13.46,0,0,1-3.27,1.2c-1.63.25-2.92,1-4,.41s-4.55-3.31-4.55-3.31S1816.57,876.45,1817.78,876.69Z" transform="translate(-44.21 -108.77)"/><path class="cls-1" d="M1992,1079.44c-2.93-3.66-2.52-7.47-.25-11.23-1.81-1.28-3-2.4-3-3,0-2.13-2.72-20-3.62-23.35l-1.36-5.1s21.28-49.24,31.23-64.95,21.28-20,26.26-20.8,12.67-8.07,16.29-14.44,7.7-10.61,7.25-13.16.9-14.86,1.35-16.55-4.07-5.52-10.41,5.94-5.88,14-5.88,14-9.51-1.27-11.32-1.27-3.17-5.1-1.81-9.34.91-10.62,4.07-14.86,8.61-14,12.23-16.56,9.5-5.94,10-7.22,4.53-4.24-.9-5.94-14.49,6.37-21.73,11a59.65,59.65,0,0,0-10.41,8.06s-4.53-4.24,8.6-11.88,19-12.31,12.22-16.56c0,0-12.67,4.25-17.65,8.92,0,0-7.24.42-10.86,1.69a101,101,0,0,0-12.23,6c-1.35.85-9,17.4-11.31,20.8s-.91,7.22,0,9.76,7.24,13.16,4.53,17-5.44,4.67-7.7,9.33-16.75,19.11-19.92,22.51-16.29,15.7-16.29,15.7-.46-4.67-2.27-5.52,0-14.85-5.88-19.52-24-14.86-41.64-13.17-49.34,1.7-54.32,1.7-16.3-.85-16.3-.85-19.91,29.72-19,35.66-.45,10.62-.9,15.29,1.35,18.25,1.81,21.65,2.71,21.65,2.26,28.44,1.81,27.17,3.62,34,5.43,11.46,9.51,16.13,6.33,8.06,10.86,14,8.15,10.19,7.24,13.16a35.4,35.4,0,0,0-1.06,7.11h150C2006.69,1108.68,2004.43,1094.36,1992,1079.44Z" transform="translate(-44.21 -108.77)"/><path class="cls-1" d="M2296.48,1120.59c-3-6.45-3.9-7.86-4.8-7S2274,1086.05,2254,1064.7s-33.54-42.12-37.43-52.8-3.89-24.15-10.48-34-17.67-30-18.87-29.49c0,0-6.88-17.69-10.78-17.41,0,0,1.5-4.5-5.39-2s.3,27.53,3.3,37.64c0,0-6.89-14.05-10.18-22.47,0,0-11.08-6.18-3.6,20.22s8.69,28.09,8.39,29.49.3,9.83.3,9.83l-3.3.28s-5.69-12.64-12-18.82-15.88-7.3-13.48-.56,3.89-2.25,8.08,14.61,5.7,12.91,7.49,18,11.08,11,15.57,14,14.68,5.62,22.46,14.61a202.33,202.33,0,0,1,21.26,30.89c4.79,8.71,18,28.09,22.76,43.25l.62,2h58.53C2296.91,1121.44,2296.65,1121,2296.48,1120.59Z" transform="translate(-44.21 -108.77)"/><path class="cls-1" d="M2511.52,1095.89c-4.79-7.27-8.85-15.92-9.22-18.34s-5.9-45.33-7-63-1.11-58.83,1.11-64,7.74-11.07,8.85-16.95,0-10.38,4.06-16.61,10.33-13.49,13.28-18.34a46.18,46.18,0,0,0,4.8-11.42c.37-1.38-4.43-5.53-12.92,3.12s-9.59,15.57-16.6,16.26-11.8,2.08-13.65,0-9.59-9.34-9.59-10.38,6.64-14.19,5.53-17-5.16-4.5-5.53-1-2.58,5.88-3.69,7.61l-1.11,1.73s-8.11-6.57-8.11-9.69,2.21-17.3-1.11-21.11-5.17-2.42-5.17-2.42l-1.1,6.92s-1.85-16.95-11.44-13.84c-1.1.36,1.85,8.65,1.85,8.65s-3.69.35-2.95,2.42,2.58,6.92,2.58,11.42,2.21,7.27,2.95,13.5,4.79,10.72,5.53,15.57,1.11,11.76,2.58,15.22,6.65,14.54,6.28,17.65,2.21,10.38,2.58,15.22a40.52,40.52,0,0,1-.37,11.77c-.74,3.8,0,9.69,0,15.22s-2.21,34.95-2.95,49.14-4.06,31.48-4.06,31.48-8.48,27-10,33.91a37.39,37.39,0,0,0,2.21,21.8c.65,1.6,2.21,5.83,4.28,11.58h68.8C2518.2,1110.65,2513.88,1099.46,2511.52,1095.89Z" transform="translate(-44.21 -108.77)"/><path class="cls-1" d="M2948.24,1107.12a62.53,62.53,0,0,1,1.48-8.31s6.45.87,7.93-.69,0-2.08-.74-3.29-5.17-4-4.43-6,2.22-20.94-1.1-28.2-3.32-8.65-8.3-14.36-7.57-11.77-8.49-13.15-3-3.29-4.06-5.71-2.4-4.15-4.06-7.78-.92-5-3.13-8.31-3.32-5-5.54-6.4-12-5.19-12-5.19,5.72-42.91,7.2-45.16,16.41-30.62,17-31.83-10.89-8.65-11.25-9.86,5.53-22.66,7.74-26.47,14.76-20.24,17-36.5,2.22-22.67,2.77-23.53,6.64-12.81,8.49-13.84,8.85-4.67,9.77-5.54,3.32-3.81,1.48-4.84-8.3-.52-12.91,1.38-11.81,4.33-13.1,5.19-3.32-1-1.29-4.67,17.89-24.57,19.37-26.47,4.05-5,.55-8-9.22,6.57-11.25,7.61-5.35,5.54-6.83,7.1-10.88,10-12.36,11.76l-3,3.46s.92-11.59,2.77-14.36,13.1-23,13.65-26.12-.19-5-4.06-4.67-6.64,5.71-8.85,9-10.52,15.4-12.55,17.48-3.69,3.46-4,5.88a30.71,30.71,0,0,1-1.11,5.19c0-.52-2.22-5.36-1.85-8s1.66-10.55,2.22-12.63,3.32-9,3.32-10.73,2.7-8.39-5.66-6.88c-4,.72-4.19,7.5-6.85,12s-2.86,10.36-4.38,13.93-3.05,6.78-1.91,10.71,2.86,9.11,3.43,13.93.95,14.28.95,18.39.57,16.25-.38,26.61-.95,16.25-2.47,18.39a63.17,63.17,0,0,0-8,15.54c-2.86,8-5.9,16.78-5.9,16.78a9.15,9.15,0,0,0-5.9,6.25c-1.15,4.82-15,31.43-17.33,35.36s-6.47,13.93-8,16.25-5.52,11.07-5.9,12.85-11.42,17-14.85,20.36-15.8,12.68-15.23,12.5,2.66,4.11,3.05,7.14-1,6.08.19,9.47a42.76,42.76,0,0,1,1.52,5.53s-4.76,10-6.47,27.15-2.48,23-2.48,25.17-.19,5.72-.19,5.72-6.09,6.07-9.14,12c0,0-17.14,12.25-29.62,26.34H2949.5C2948.59,1116.83,2947.76,1110.57,2948.24,1107.12Z" transform="translate(-44.21 -108.77)"/><path class="cls-1" d="M3202.29,1099.12c-2-8.86-9.05-33.57-13.38-44.64s-32.25-50.91-35.79-60.13-17.31-32.83-17.31-35.05-2.36-1.1-2-2.21-5.9-5.53-5.12-15.13,8.26-30.62,8.26-35-2.75-5.9-3.14-9.23,0-9.59-.4-14-2-7-3.93-10.7-8.65-17-9.05-20.29-6.29-4.06-10.22,1.47l.39,5.17a4.28,4.28,0,0,0,0,6.27l.39,12.17s-3.54-11.43-8.65-10-4.72,9.6-3.15,17.71,1.58,12.54.4,15.86-3.54,7.38-4.33,9.23-1.18,4.79-2.36,5.9-11.41,4.79-13.37,5.53-8.66,0-8.66,0-18.09-14.75-27.92-14.75-11,4.05-11,4.05,7.87,5.54,10.62,10.33,7.08,5.17,9.84,7.75,8.26,7.38,9.44,10,9.83,10.33,15.73,11.81,13.77,9.22,14.16,12.54a16.15,16.15,0,0,0,2,5.9l-2,2.58s4.72,5.91,6.69,9.23,3.93,18.81,5.11,21.39,3.15,7.38,2.75,9.23,2,8.85,2,10.69.79,10.33.39,18.45-.39,18.08,0,20.66-5.11,3.69-2,10.33,5.5,7.37,5.11,12.91-6.69,10-4.72,12.91,5.11,7.38,6.29,11.44.4,10.69-.78,12.54h92.48C3204.54,1114.55,3203.48,1104.51,3202.29,1099.12Z" transform="translate(-44.21 -108.77)"/></svg>